# Object Export From Tinkercad Server 2015

mtllib obj.mtl

o obj_0
v -1.587 		213.218 		82
v -1.732 		213 		82
v -1.848 		212.765 		82
v -1.932 		212.518 		82
v -1.983 		212.261 		82
v -2 		212 		82
v -1.983 		211.739 		82
v -1.932 		211.482 		82
v -1.848 		211.235 		82
v -1.732 		211 		82
v -1.587 		210.782 		82
v 15.556 		187.592 		37.714
v -3.897 		196.121 		23.99
v 0 		196.003 		21.744
v 1.593 		213.593 		44.8442
v 1.787 		213.371 		44.7278
v 1.951 		213.126 		44.6294
v -3.57 		196.147 		24.479
v 3 		212.052 		44
v 1.414 		213.414 		30
v 15.556 		191.587 		37.505
v 13.393 		191.686 		39.4
v 13.393 		187.691 		39.609
v 1.414 		210.586 		30
v -4.5 		196.003 		21.744
v -4.347 		196.064 		22.907
v -4.462 		196.034 		22.33
v -4.157 		196.093 		23.463
v 0.587 		200.535 		17.038
v 0 		200.533 		17
v 2.081 		212.862 		44.5514
v 2.176 		212.583 		44.4944
v 2.233 		212.294 		44.4602
v 2.253 		212 		44.4482
v 2.233 		211.706 		44.4602
v 2.176 		211.417 		44.4944
v 2.081 		211.138 		44.5514
v 1.787 		210.629 		44.7278
v 1.951 		210.874 		44.6294
v -3.182 		200.602 		18.316
v -3.57 		200.625 		18.758
v -1.722 		200.55 		17.342
v -2.25 		200.564 		17.602
v -2.739 		200.581 		17.929
v -3.897 		200.65 		19.247
v 20.325 		191.213 		30.377
v 21.25 		191.071 		27.656
v 1.299 		211.25 		0.0653
v 21.812 		190.923 		24.838
v 0 		200.768 		21.494
v 21.812 		186.928 		25.047
v 21.25 		187.076 		27.865
v 20.325 		187.219 		30.587
v 21.812 		186.628 		19.311
v 21.25 		186.48 		16.493
v 1.386 		211.426 		0.1813
v 0.518 		210.068 		82
v 0.765 		210.152 		82
v 1 		210.268 		82
v 1.218 		210.413 		82
v 22 		186.778 		22.179
v 0 		210 		82
v 0.261 		210.017 		82
v -0.261 		210.017 		82
v -1.218 		210.413 		82
v -1 		210.268 		82
v -0.765 		210.152 		82
v -0.518 		210.068 		82
v 22 		190.773 		21.97
v 21.812 		190.622 		19.102
v -0.587 		200.535 		17.038
v -1.165 		200.541 		17.153
v 1.732 		213 		82
v 1.587 		213.218 		82
v 2 		212 		82
v 1.983 		212.261 		82
v 1.932 		212.518 		82
v 1.848 		212.765 		82
v 1.732 		211 		82
v 1.848 		211.235 		82
v 1.932 		211.482 		82
v 1.983 		211.739 		82
v 1.587 		210.782 		82
v 0.587 		196 		26.164
v 1.722 		195.984 		25.86
v 3.376 		190.928 		24.926
v -4.157 		200.678 		19.774
v -4.347 		200.707 		20.331
v 2.739 		195.953 		25.273
v 1.449 		211.612 		0.2653
v 1.487 		211.804 		0.316
v 1.5 		212 		0.3333
v 1.487 		212.196 		0.316
v 1.449 		212.388 		0.2653
v 1.386 		212.574 		0.1813
v 1.299 		212.75 		0.0653
v -11 		191.77 		40.997
v -1.299 		211.25 		0.0653
v -1.386 		211.426 		0.1813
v -11 		187.775 		41.206
v -1.449 		211.612 		0.2653
v 2.495 		190.968 		25.698
v 1.722 		190.99 		26.121
v 0.876 		191.003 		26.368
v -3.182 		-67.724 		38.703
v -3.57 		-67.748 		38.26
v -2.495 		-67.695 		39.253
v -13.393 		191.686 		39.4
v -15.556 		191.587 		37.505
v -4.157 		-67.801 		37.245
v 2.495 		186.973 		25.908
v 3.376 		186.933 		25.136
v -13.393 		187.691 		39.609
v -15.556 		187.592 		37.714
v -17.454 		191.474 		35.345
v -19.053 		191.348 		32.955
v 0.261 		213.983 		82
v 0 		214 		82
v 1.218 		213.587 		82
v 1 		213.732 		82
v 0.765 		213.848 		82
v 0.518 		213.932 		82
v -17.454 		187.479 		35.554
v -0.261 		213.983 		82
v -0.518 		213.932 		82
v -0.765 		213.848 		82
v -1 		213.732 		82
v -1.218 		213.587 		82
v -1.722 		-67.673 		39.676
v -19.053 		187.354 		33.164
v 0.587 		187.012 		26.635
v 1.722 		186.996 		26.331
v -4.347 		-67.952 		34.362
v -4.157 		-67.981 		33.805
v -4.481 		-67.906 		35.232
v -2.739 		195.953 		25.273
v -2.25 		195.97 		25.6
v -4.461 		-67.86 		36.111
v -3.376 		195.921 		24.665
v -3.57 		-68.034 		32.79
v 4.027 		190.877 		23.953
v -3.57 		190.916 		24.705
v -17.846 		-73.007 		33.441
v -18 		-72.884 		35.787
v -17.846 		-72.761 		38.132
v -17.387 		-72.641 		40.439
v 17.846 		-73.007 		33.441
v 17.846 		-72.761 		38.132
v 18 		-72.884 		35.787
v -0.294 		214.233 		43.003
v 0 		214.253 		43.003
v -0.583 		214.176 		43.003
v -0.862 		214.081 		43.003
v -1.003 		214.0116 		43.003
v -1.371 		213.787 		44.9774
v -0.294 		214.233 		45.5
v 0 		214.253 		45.5
v -0.583 		214.176 		45.4502
v -0.5 		214.1924 		45.5
v -17.846 		-108.715 		40.016
v -0.862 		214.081 		45.2828
v -18 		-108.838 		37.671
v -1.126 		213.951 		45.1244
v -17.846 		-108.961 		35.325
v -17.387 		-109.081 		33.018
v -0.503 		228.253 		43.003
v -0.503 		215.253 		43.003
v -1.003 		215.253 		43.003
v 17.387 		-72.641 		40.439
v 2.25 		195.799 		17.852
v 4.347 		195.942 		20.58
v 1.165 		195.776 		17.403
v 1.722 		195.786 		17.592
v 0 		195.768 		17.25
v 0.587 		195.77 		17.288
v 4.462 		195.973 		21.157
v 4.405 		195.812 		22.583
v 4.481 		195.751 		21.415
v 4.347 		195.705 		20.545
v -2.739 		186.965 		25.744
v -2.25 		186.982 		26.071
v -1.487 		211.804 		0.316
v -1.5 		212 		0.3333
v -1.487 		212.196 		0.316
v 1.414 		213.414 		82
v -1.449 		212.388 		0.2653
v -1.414 		213.414 		82
v -1.386 		212.574 		0.1813
v 1.414 		210.586 		82
v -1.414 		210.586 		82
v -1.299 		212.75 		0.0653
v -1.061 		213.061 		-0.252
v -0.913 		213.19 		-0.4493
v 3.897 		-67.773 		37.772
v 4.157 		-67.801 		37.245
v -2.739 		-68.078 		31.96
v -1.722 		-68.109 		31.374
v -0.75 		213.299 		-0.6667
v 0.294 		214.233 		43.003
v -0.574 		213.386 		-0.9013
v 0.583 		214.176 		43.003
v 4.157 		195.856 		23.428
v -0.5 		213.4111 		-1
v -0.388 		213.449 		-1
v 0.862 		214.081 		43.003
v -0.196 		213.487 		-1
v 1.003 		214.0116 		43.003
v -0.003 		213.4998 		-1
v 1.371 		213.787 		44.9774
v -14.28 		-73.458 		24.844
v -15.588 		-73.355 		26.799
v 0.196 		213.487 		-1
v 0.003 		213.4998 		-1
v 50.5 		141.315 		81
v 49.913 		141.503 		81
v 49.294 		141.639 		81
v 52.83 		139.341 		81
v 52.619 		139.744 		81
v 52.33 		140.125 		81
v 51.967 		140.478 		81
v 51.536 		140.798 		81
v 51.044 		141.078 		81
v 0.294 		214.233 		45.5
v 0.583 		214.176 		45.4502
v 0.5 		214.1924 		45.5
v 53 		138.5 		81
v 52.957 		138.924 		81
v 49.294 		135.361 		81
v 49.913 		135.497 		81
v 50.5 		135.685 		81
v 51.044 		135.922 		81
v 51.536 		136.202 		81
v 0.862 		214.081 		45.2828
v 51.967 		136.522 		81
v 52.33 		136.875 		81
v 52.619 		137.256 		81
v 52.83 		137.659 		81
v 52.957 		138.076 		81
v 1.126 		213.951 		45.1244
v 48 		141.75 		81
v 47.347 		141.722 		81
v 46.706 		141.639 		81
v 46.087 		141.503 		81
v 45.5 		141.315 		81
v 44.956 		141.078 		81
v 44.464 		140.798 		81
v 44.033 		140.478 		81
v 43.67 		140.125 		81
v 43.381 		139.744 		81
v 43.17 		139.341 		81
v 0.388 		213.449 		-1
v 3.182 		-67.724 		38.703
v 2.495 		-67.695 		39.253
v 0.574 		213.386 		-0.9013
v 0.5 		213.4111 		-1
v 48.653 		141.722 		81
v -10.958 		-73.632 		21.526
v -12.728 		-73.551 		23.076
v 45.5 		135.685 		81
v 46.087 		135.497 		81
v 46.706 		135.361 		81
v 47.347 		135.278 		81
v 48 		135.25 		81
v 48.653 		135.278 		81
v -9 		-73.7 		20.22
v 0.75 		213.299 		-0.6667
v 43.67 		136.875 		81
v 44.033 		136.522 		81
v 44.464 		136.202 		81
v 44.956 		135.922 		81
v 43.043 		138.924 		81
v 43 		138.5 		81
v 43.043 		138.076 		81
v 43.17 		137.659 		81
v 43.381 		137.256 		81
v 0.913 		213.19 		-0.4493
v 1.061 		213.061 		-0.252
v 2.25 		195.562 		17.817
v 1.165 		195.539 		17.367
v 1.444 		-67.668 		39.771
v 0.587 		-67.657 		39.981
v 0 		195.531 		17.214
v -2.349 		-73.818 		17.965
v -4.659 		-73.794 		18.423
v -6.888 		-73.755 		19.179
v 1.19 		211.087 		-0.08
v 3.57 		195.91 		24.443
v 4.481 		-67.906 		35.232
v 3.897 		-68.009 		33.278
v 4.347 		-67.952 		34.362
v 3.57 		-68.034 		32.79
v 0.503 		228.253 		43.003
v 0.503 		215.253 		43.003
v -3.897 		195.884 		23.955
v 1.003 		215.253 		43.003
v 0 		237.25 		45.5
v 0.5 		237.055 		45.5
v 4.405 		-67.845 		36.4
v -4.027 		190.877 		23.953
v -4.347 		195.942 		20.58
v 4.157 		195.913 		20.024
v -4.462 		195.973 		21.157
v -4.461 		195.736 		21.122
v -4.5 		195.766 		21.708
v -16.63 		-73.245 		28.908
v -17.387 		-73.128 		31.134
v -4.404 		195.812 		22.583
v -4.157 		195.856 		23.428
v 1.986 		190.562 		17.948
v 3.734 		190.642 		19.479
v 1.19 		212.913 		-0.08
v -4.347 		190.834 		23.133
v -12.728 		-109.504 		24.96
v -15.588 		-109.309 		28.683
v 0.003 		210.5002 		-1
v 0.196 		210.513 		-1
v -14.28 		-109.411 		26.728
v -0.5 		237.055 		45.5
v -4.252 		190.697 		20.528
v -0.587 		-67.657 		39.981
v -4.659 		-109.748 		20.308
v -2.349 		-109.772 		19.849
v -10.958 		-109.585 		23.41
v -6.888 		-109.708 		21.063
v -9 		-109.653 		22.104
v 0.388 		210.551 		-1
v -16.63 		-109.198 		30.792
v 0.5 		210.5889 		-1
v 0.574 		210.614 		-0.9013
v 0.75 		210.701 		-0.6667
v 0.913 		210.81 		-0.4493
v 0.876 		190.542 		17.571
v -1.371 		210.213 		27.998
v -1.126 		210.049 		27.998
v -1.003 		209.9884 		27.998
v 1.061 		210.939 		-0.252
v 0 		210 		30
v -0.261 		210.017 		30
v -0.518 		210.068 		30
v -0.765 		210.152 		30
v -1 		210.268 		30
v -1.218 		210.413 		30
v 20.325 		190.332 		13.562
v 21.25 		190.475 		16.284
v -1.19 		211.087 		-0.08
v 17.454 		190.072 		8.595
v 19.053 		190.197 		10.985
v 20.325 		186.337 		13.772
v -1.19 		212.913 		-0.08
v 4.405 		186.732 		21.304
v 19.053 		186.202 		11.194
v -0.003 		210.5002 		-1
v 17.454 		186.077 		8.805
v -0.196 		210.513 		-1
v -0.388 		210.551 		-1
v 17.846 		-108.715 		40.016
v -2.25 		195.799 		17.852
v -2.739 		195.816 		18.178
v 4.027 		186.882 		24.162
v 4.5 		186.778 		22.179
v 17.846 		-108.961 		35.325
v 18 		-108.838 		37.671
v 15.556 		189.959 		6.435
v 11 		189.776 		2.943
v 13.393 		189.859 		4.54
v 17.387 		-109.081 		33.018
v 13.393 		185.864 		4.749
v 15.556 		185.964 		6.645
v -0.5 		210.5889 		-1
v -0.574 		210.614 		-0.9013
v -0.75 		210.701 		-0.6667
v 4.405 		186.824 		23.054
v -0.913 		210.81 		-0.4493
v -1.061 		210.939 		-0.252
v -3.57 		195.86 		19.008
v 52.83 		139.341 		68.5
v 52.619 		139.744 		68.5
v 52.33 		140.125 		68.5
v 51.967 		140.478 		68.5
v 3.376 		186.623 		19.223
v 51.536 		140.798 		68.5
v 4.027 		186.674 		20.196
v 51.044 		141.078 		68.5
v 50.5 		141.315 		68.5
v 49.913 		141.503 		68.5
v 16.63 		-73.245 		28.908
v 17.387 		-73.128 		31.134
v 49.294 		141.639 		68.5
v 49.294 		135.361 		68.5
v 49.913 		135.497 		68.5
v 50.5 		135.685 		68.5
v 51.044 		135.922 		68.5
v 51.536 		136.202 		68.5
v 51.967 		136.522 		68.5
v 52.33 		136.875 		68.5
v 52.619 		137.256 		68.5
v 52.83 		137.659 		68.5
v 52.957 		138.076 		68.5
v 53 		138.5 		68.5
v 52.957 		138.924 		68.5
v 15.588 		-73.355 		26.799
v 14.28 		-73.458 		24.844
v 1.722 		-68.109 		31.374
v 2.739 		-68.078 		31.96
v 0.587 		-68.124 		31.069
v -3.576 		195.8605 		19.017
v -3.57 		195.86 		19.008
v -3.57 		195.86 		19.008
v 9 		-73.7 		20.22
v 10.958 		-73.632 		21.526
v 12.728 		-73.551 		23.076
v -1.061 		213.061 		-5
v -0.913 		213.19 		-5
v -0.75 		213.299 		-5
v -0.574 		213.386 		-5
v -0.388 		213.449 		-5
v -0.196 		213.487 		-5
v -0.003 		213.4998 		-5
v 0.196 		213.487 		-5
v 0.003 		213.4998 		-5
v 0.388 		213.449 		-5
v 0.574 		213.386 		-5
v 0.75 		213.299 		-5
v 0.913 		213.19 		-5
v 1.061 		213.061 		-5
v 1.19 		211.087 		-5
v 1.299 		211.25 		-5
v -0.503 		210.5 		27.998
v 1.386 		211.426 		-5
v 1.449 		211.612 		-5
v -3.57 		195.86 		19.008
v 1.487 		211.804 		-5
v 1.5 		212 		-5
v 1.487 		212.196 		-5
v 1.449 		212.388 		-5
v 1.386 		212.574 		-5
v 1.299 		212.75 		-5
v 1.19 		212.913 		-5
v 0.003 		210.5002 		-5
v 0.196 		210.513 		-5
v 0.388 		210.551 		-5
v -1.722 		195.786 		17.592
v 0.574 		210.614 		-5
v 0.75 		210.701 		-5
v -3.182 		195.837 		18.566
v 0.913 		210.81 		-5
v 1.061 		210.939 		-5
v -3.897 		195.886 		19.497
v -1.19 		211.087 		-5
v -1.299 		211.25 		-5
v -1.386 		211.426 		-5
v -1.449 		211.612 		-5
v -1.487 		211.804 		-5
v -1.5 		212 		-5
v -1.487 		212.196 		-5
v -1.449 		212.388 		-5
v -1.386 		212.574 		-5
v -1.299 		212.75 		-5
v -1.19 		212.913 		-5
v -0.003 		210.5002 		-5
v -0.196 		210.513 		-5
v -0.388 		210.551 		-5
v -0.574 		210.614 		-5
v -0.75 		210.701 		-5
v -0.913 		210.81 		-5
v -1.061 		210.939 		-5
v 70 		145 		42
v 70 		132 		42
v 42 		132 		42
v 42 		145 		42
v -0.503 		210.248 		26.998
v -0.503 		207.248 		26.998
v -0.503 		209.248 		27.998
v -1.003 		209.248 		27.998
v 1.444 		186.555 		17.933
v 1.593 		210.407 		27.998
v 1.371 		210.213 		27.998
v 1.126 		210.049 		27.998
v 1.003 		209.9884 		27.998
v 1.218 		210.413 		30
v 1 		210.268 		30
v 0.765 		210.152 		30
v 0.518 		210.068 		30
v 0.261 		210.017 		30
v -1.951 		210.874 		44.6294
v -1.787 		210.629 		44.7278
v -1.593 		210.407 		44.8442
v -2.081 		212.862 		44.5514
v -2.176 		212.583 		44.4944
v -2.233 		212.294 		44.4602
v 0.294 		186.543 		17.704
v -2.253 		212 		44.4482
v -2.233 		211.706 		44.4602
v -2.176 		211.417 		44.4944
v -2.081 		211.138 		44.5514
v -1.593 		213.593 		44.8442
v -1.787 		213.371 		44.7278
v 2.495 		186.583 		18.451
v -1.951 		213.126 		44.6294
v -3 		212.052 		44
v -2.25 		195.562 		17.817
v -2.961 		195.59 		18.337
v -3.897 		195.648 		19.461
v -0.5 		204.55 		28
v -0.003 		210.248 		11.003
v 0.003 		210.248 		11.003
v -3.734 		190.642 		19.479
v 0 		206.759 		21.311
v 0.5 		207.051 		21.364
v 0.503 		210.248 		5.998
v -3.182 		190.606 		18.792
v -0.5 		207.051 		21.364
v -2.495 		190.577 		18.241
v -4.157 		195.913 		20.024
v -4.157 		195.676 		19.989
v 48.653 		141.722 		68.5
v 48 		141.75 		68.5
v 47.347 		141.722 		68.5
v 46.706 		141.639 		68.5
v 46.087 		141.503 		68.5
v 45.5 		141.315 		68.5
v 44.956 		141.078 		68.5
v 44.464 		140.798 		68.5
v -4.252 		186.702 		20.738
v 5.694 		185.666 		0.958
v 2.872 		185.636 		0.397
v 0 		185.626 		0.209
v 0 		189.621 		0
v 2.872 		189.631 		0.188
v -4.027 		186.882 		24.162
v -1.165 		195.994 		26.049
v -4.481 		186.7626 		21.886
v -4.404 		186.8239 		23.054
v -4.481 		186.7626 		21.886
v -4.404 		186.8239 		23.054
v -0.587 		196 		26.164
v -1.444 		190.995 		26.216
v 44.033 		140.478 		68.5
v 43.67 		140.125 		68.5
v 43.381 		139.744 		68.5
v 43.17 		139.341 		68.5
v 45.5 		135.685 		68.5
v 46.087 		135.497 		68.5
v 46.706 		135.361 		68.5
v 47.347 		135.278 		68.5
v 48 		135.25 		68.5
v 48.653 		135.278 		68.5
v 43 		138.5 		68.5
v 43.043 		138.076 		68.5
v 43.17 		137.659 		68.5
v 43.381 		137.256 		68.5
v 43.67 		136.875 		68.5
v 44.033 		136.522 		68.5
v 44.464 		136.202 		68.5
v 44.956 		135.922 		68.5
v 43.043 		138.924 		68.5
v 42 		145 		68.5
v 42 		132 		68.5
v 70 		132 		68.5
v 70 		145 		68.5
v -1.951 		210.874 		27.998
v -1.787 		210.629 		27.998
v -1.593 		210.407 		27.998
v -2.081 		212.862 		27.998
v -2.176 		212.583 		27.998
v -2.233 		212.294 		27.998
v -2.253 		212 		27.998
v -2.233 		211.706 		27.998
v -2.176 		211.417 		27.998
v -2.081 		211.138 		27.998
v -1.593 		213.593 		27.998
v -1.787 		213.371 		27.998
v -1.951 		213.126 		27.998
v -1.587 		210.782 		30
v 3.182 		200.602 		18.316
v -0.294 		191.007 		26.445
v 2.739 		200.581 		17.929
v 2.25 		200.564 		17.602
v 1.722 		200.55 		17.342
v -1.444 		187 		26.425
v -0.294 		187.012 		26.654
v 36 		145 		62
v 36 		145 		64
v 42 		145 		64
v 42 		145 		62
v 76 		145 		64
v 76 		145 		62
v 70 		145 		62
v 70 		145 		64
v -9 		-72.068 		51.353
v -10.958 		-72.137 		50.047
v -6.888 		-72.014 		52.394
v -4.659 		-71.974 		53.15
v -2.349 		-71.95 		53.608
v 4.347 		190.834 		23.133
v -15.588 		-72.413 		44.774
v -14.28 		-72.311 		46.73
v -12.728 		-72.218 		48.497
v -16.63 		-72.524 		42.665
v 4.659 		-73.794 		18.423
v 2.349 		-73.818 		17.965
v 6.888 		-73.755 		19.179
v 0 		-73.827 		17.811
v -4.404 		186.8239 		23.054
v -4.481 		186.7626 		21.886
v -4.481 		186.7627 		21.886
v -4.481 		186.7627 		21.886
v -4.481 		186.7627 		21.886
v -4.404 		186.824 		23.054
v -0.587 		-68.124 		31.069
v -4.481 		186.7629 		21.886
v -4.481 		186.7629 		21.886
v -4.481 		186.7629 		21.886
v -4.481 		186.763 		21.886
v -1.732 		211 		30
v -1.848 		211.235 		30
v -1.932 		211.482 		30
v -1.983 		211.739 		30
v -2 		212 		30
v -1.983 		212.261 		30
v -1.932 		212.518 		30
v -1.848 		212.765 		30
v -4.659 		-107.928 		55.034
v -6.888 		-107.967 		54.278
v -2.349 		-107.904 		55.492
v 0.503 		210.248 		26.998
v -9 		-108.022 		53.237
v 0.503 		207.248 		26.998
v -10.958 		-108.09 		51.931
v -12.728 		-108.171 		50.381
v 0.503 		209.248 		27.998
v 1.003 		209.248 		27.998
v 0.5 		204.55 		28
v 0 		204.3 		27.92
v -3.734 		186.647 		19.688
v -14.28 		-108.264 		48.614
v -15.588 		-108.367 		46.658
v -2.961 		186.601 		18.808
v -1.986 		186.567 		18.158
v -16.63 		-108.477 		44.549
v -17.387 		-108.594 		42.323
v 9 		-72.068 		51.353
v 10.958 		-72.137 		50.047
v 4.252 		190.697 		20.528
v 2.739 		196.19 		25.309
v 3.182 		196.17 		24.921
v 3.182 		200.935 		24.671
v 1.165 		200.996 		25.835
v 1.722 		200.986 		25.646
v 2.739 		200.955 		25.059
v 2.25 		200.972 		25.386
v 4.347 		200.829 		22.657
v 4.462 		200.799 		22.08
v 4.481 		190.757 		21.677
v 4.157 		200.858 		23.214
v 4.462 		200.737 		20.907
v 4.5 		200.768 		21.494
v 3.897 		200.886 		23.741
v -1.732 		213 		30
v -1.587 		213.218 		30
v -8.419 		191.837 		42.267
v -5.694 		191.885 		43.191
v -2.872 		191.914 		43.752
v -1.165 		195.776 		17.403
v -0.587 		195.77 		17.288
v -8.419 		187.842 		42.476
v -5.694 		187.89 		43.4
v -1.165 		195.776 		17.403
v -1.165 		195.776 		17.403
v -1.165 		195.776 		17.403
v -2.872 		187.92 		43.961
v -20.325 		191.213 		30.377
v -21.25 		191.071 		27.656
v -21.812 		190.923 		24.838
v 16.63 		-109.198 		30.792
v -20.325 		187.219 		30.587
v -21.25 		187.076 		27.865
v -21.812 		186.928 		25.047
v 15.588 		-109.309 		28.683
v 14.28 		-109.411 		26.728
v 12.728 		-109.504 		24.96
v -22 		190.773 		21.97
v -21.812 		190.622 		19.102
v -1.165 		195.539 		17.367
v 3.57 		195.86 		19.008
v 2.739 		195.816 		18.178
v -0.294 		190.538 		17.495
v -1.444 		190.55 		17.724
v 3.897 		195.886 		19.497
v 3.182 		195.837 		18.566
v 2.349 		-109.772 		19.849
v 4.659 		-109.748 		20.308
v 10.958 		-109.585 		23.41
v 6.888 		-109.708 		21.063
v 9 		-109.653 		22.104
v -0.876 		186.547 		17.781
v 0 		-109.78 		19.695
v 3.897 		195.648 		19.461
v 3.182 		195.6 		18.531
v 2.739 		195.579 		18.143
v -21.25 		186.48 		16.493
v -21.812 		186.628 		19.311
v -22 		186.778 		22.179
v 6.888 		-72.014 		52.394
v 4.659 		-71.974 		53.15
v 2.349 		-71.95 		53.608
v 0 		-71.942 		53.762
v 1.951 		210.874 		27.998
v 1.787 		210.629 		27.998
v 2.081 		212.862 		27.998
v 2.176 		212.583 		27.998
v 2.233 		212.294 		27.998
v 2.253 		212 		27.998
v 2.233 		211.706 		27.998
v 2.176 		211.417 		27.998
v 2.081 		211.138 		27.998
v 1.593 		213.593 		27.998
v 1.787 		213.371 		27.998
v 1.951 		213.126 		27.998
v 1.587 		210.782 		30
v 1.848 		212.765 		30
v 1.932 		212.518 		30
v 1.983 		212.261 		30
v 2 		212 		30
v 1.983 		211.739 		30
v 1.932 		211.482 		30
v 1.848 		211.235 		30
v 1.732 		211 		30
v 16.63 		-72.524 		42.665
v 1.587 		213.218 		30
v 1.732 		213 		30
v 14.28 		-72.311 		46.73
v 15.588 		-72.413 		44.774
v 12.728 		-72.218 		48.497
v 10.958 		-108.09 		51.931
v 9 		-108.022 		53.237
v 12.728 		-108.171 		50.381
v 8.419 		189.709 		1.673
v 4.659 		-107.928 		55.034
v 0 		-107.896 		55.646
v 2.349 		-107.904 		55.492
v 11 		185.781 		3.152
v -0.862 		209.919 		43.003
v -1.003 		209.9884 		43.003
v 8.419 		185.714 		1.882
v -0.583 		209.824 		43.003
v -0.294 		209.767 		43.003
v 0 		209.748 		43.003
v -1.371 		210.213 		44.9774
v -1.126 		210.049 		45.1244
v -0.862 		209.919 		45.2828
v -0.583 		209.824 		45.4502
v -0.294 		209.767 		45.5
v -0.5 		209.8076 		45.5
v 0 		209.748 		45.5
v -0.503 		207.248 		43.003
v -0.503 		209.248 		43.003
v -1.003 		209.248 		43.003
v 1.003 		209.9884 		43.003
v 0.862 		209.919 		43.003
v 0.583 		209.824 		43.003
v 0.294 		209.767 		43.003
v 3.57 		200.911 		24.23
v 4.157 		196.093 		23.463
v 4.5 		196.003 		21.744
v 1.593 		210.407 		44.8442
v 1.371 		210.213 		44.9774
v 4.347 		196.064 		22.907
v 4.462 		196.034 		22.33
v 1.126 		210.049 		45.1244
v 0.862 		209.919 		45.2828
v 0.583 		209.824 		45.4502
v 0.294 		209.767 		45.5
v 0.5 		209.8076 		45.5
v 0.503 		207.248 		43.003
v 0.503 		209.248 		43.003
v 1.003 		209.248 		43.003
v 3.897 		196.121 		23.99
v 0.5 		204.55 		45.5
v 0 		204.3 		45.5
v 3.57 		196.147 		24.479
v 4.347 		200.707 		20.331
v 4.157 		200.678 		19.774
v 3.897 		200.65 		19.247
v 3.57 		200.625 		18.758
v 6.888 		-107.967 		54.278
v -0.5 		204.55 		45.5
v 5.694 		187.89 		43.4
v 19.053 		191.348 		32.955
v 17.454 		191.474 		35.345
v 8.419 		187.842 		42.476
v 17.387 		-108.594 		42.323
v 16.63 		-108.477 		44.549
v 19.053 		187.354 		33.164
v 17.454 		187.479 		35.554
v 8.419 		191.837 		42.267
v 5.694 		191.885 		43.191
v 11 		187.775 		41.206
v 11 		191.77 		40.997
v 15.588 		-108.367 		46.658
v 5.694 		189.661 		0.749
v 14.28 		-108.264 		48.614
v -0.003 		210.248 		5.998
v -0.503 		210.248 		5.998
v -0.003 		206.7608 		11.003
v 0 		206.759 		11.003
v -0.003 		206.7608 		-1
v 0.003 		210.248 		5.998
v 0.003 		206.7608 		11.003
v 0.003 		206.7608 		-1
v 0.5 		207.051 		-1
v -0.5 		207.051 		-1
v 42 		132 		64
v 36 		132 		64
v 36 		132 		62
v 42 		132 		62
v 76 		132 		62
v 76 		132 		64
v 70 		132 		64
v 70 		132 		62
v -2.872 		185.636 		0.397
v -5.694 		185.666 		0.958
v -5.694 		189.661 		0.749
v 0 		187.929 		44.149
v 2.872 		187.92 		43.961
v -2.872 		189.631 		0.188
v 2.872 		191.914 		43.752
v 0 		191.924 		43.94
v -8.419 		185.714 		1.882
v -13.393 		185.864 		4.749
v -15.556 		185.964 		6.645
v -11 		185.781 		3.152
v -8.419 		189.709 		1.673
v -15.556 		189.959 		6.435
v -13.393 		189.859 		4.54
v -11 		189.776 		2.943
v -21.25 		190.475 		16.284
v -19.053 		190.197 		10.985
v -20.325 		190.332 		13.562
v -17.454 		190.072 		8.595
v -20.325 		186.337 		13.772
v -19.053 		186.202 		11.194
v -17.454 		186.077 		8.805
v 1.165 		200.541 		17.153
v 2.25 		196.207 		25.635
v 1.722 		196.221 		25.895
v 0.587 		196.237 		26.199
v 0 		196.239 		26.237
v 1.165 		196.231 		26.084
v 0 		201.004 		25.988
v 0.587 		201.002 		25.949
v -0.587 		196.237 		26.199
v -1.165 		196.231 		26.084
v -1.165 		200.996 		25.835
v -0.587 		201.002 		25.949
v 3 		212.052 		29.5
v 2 		212.052 		25.819
v 2 		212.052 		1
v -1.003 		214.0116 		27.998
v -1.126 		213.951 		27.998
v -1.371 		213.787 		27.998
v -1.218 		213.587 		30
v -1 		213.732 		30
v -0.765 		213.848 		30
v -0.518 		213.932 		30
v -0.261 		213.983 		30
v 0 		214 		30
v -2 		212.052 		25.819
v -3 		212.052 		29.5
v -2 		212.052 		1
v -2.739 		196.19 		25.309
v -3.182 		196.17 		24.921
v -2.25 		196.207 		25.635
v -1.722 		196.221 		25.895
v -3.182 		200.935 		24.671
v -2.25 		200.972 		25.386
v -1.722 		200.986 		25.646
v -2.739 		200.955 		25.059
v -0.503 		215.253 		27.998
v -1.003 		215.253 		27.998
v -3.897 		200.886 		23.741
v -0.503 		228.253 		26.998
v -0.503 		223.253 		26.998
v 1.126 		213.951 		27.998
v 1.003 		214.0116 		27.998
v 1.371 		213.787 		27.998
v 0.261 		213.983 		30
v 0.518 		213.932 		30
v 0.765 		213.848 		30
v 1 		213.732 		30
v 1.218 		213.587 		30
v -3.57 		200.911 		24.23
v -4.5 		200.768 		21.494
v -4.462 		200.799 		22.08
v -4.462 		200.737 		20.907
v -4.157 		200.858 		23.214
v -4.347 		200.829 		22.657
v 0.503 		215.253 		27.998
v 1.003 		215.253 		27.998
v 0.503 		228.253 		26.998
v 0.503 		223.253 		26.998
v 0.5 		237.055 		28
v -0.5 		237.055 		28
v -0.003 		223.253 		11.003
v -0.003 		224.253 		11.003
v 0.003 		223.253 		11.003
v 0.003 		224.253 		11.003
v 0 		237.25 		-1
v 0.5 		237.055 		-1
v 0.503 		223.253 		5.998
v -0.5 		237.055 		-1
v -0.503 		223.253 		5.998
v -0.003 		223.253 		5.998
v -0.003 		224.253 		-1
v 0.003 		223.253 		5.998
v 0.003 		224.253 		-1
v -1.414 		213.414 		30
v -1.414 		210.586 		30
# 918 vertices

g group_0_16089887

usemtl color_16089887
s 0

f 3 	10 	2
f 3 	4 	5
f 3 	5 	6
f 3 	6 	7
f 3 	7 	8
f 3 	8 	9
f 3 	9 	10
f 19 	902 	297
f 23 	12 	22
f 21 	22 	12
f 32 	19 	31
f 33 	19 	32
f 17 	31 	297
f 297 	31 	19
f 33 	34 	19
f 34 	35 	19
f 35 	36 	19
f 37 	39 	19
f 17 	297 	16
f 15 	16 	297
f 38 	779 	39
f 894 	893 	27
f 26 	897 	27
f 315 	810 	808
f 407 	431 	41
f 96 	909 	95
f 48 	56 	811
f 876 	877 	50
f 877 	854 	50
f 878 	876 	50
f 71 	50 	30
f 881 	892 	50
f 40 	41 	50
f 53 	52 	46
f 71 	72 	50
f 42 	43 	50
f 44 	40 	50
f 46 	52 	47
f 895 	893 	50
f 51 	49 	52
f 88 	895 	50
f 43 	44 	50
f 72 	42 	50
f 47 	52 	49
f 90 	858 	56
f 59 	63 	58
f 60 	66 	59
f 63 	59 	62
f 57 	58 	63
f 62 	59 	64
f 65 	66 	60
f 67 	59 	66
f 68 	59 	67
f 64 	59 	68
f 61 	54 	70
f 514 	448 	14
f 14 	25 	302
f 14 	26 	27
f 14 	28 	26
f 14 	873 	871
f 14 	874 	873
f 14 	18 	13
f 14 	13 	28
f 14 	27 	25
f 14 	445 	358
f 69 	49 	61
f 871 	872 	14
f 14 	872 	18
f 14 	852 	853
f 14 	848 	852
f 14 	853 	874
f 665 	71 	30
f 665 	72 	71
f 668 	670 	72
f 74 	185 	190
f 78 	190 	77
f 76 	77 	190
f 75 	76 	190
f 82 	190 	81
f 75 	190 	82
f 723 	76 	75
f 69 	61 	70
f 45 	41 	431
f 51 	61 	49
f 102 	85 	103
f 442 	42 	670
f 86 	89 	102
f 91 	858 	90
f 92 	858 	91
f 40 	445 	41
f 93 	94 	858
f 95 	858 	94
f 437 	96 	436
f 98 	812 	99
f 104 	103 	85
f 85 	84 	104
f 104 	828 	827
f 97 	108 	100
f 113 	100 	108
f 80 	726 	81
f 113 	108 	114
f 109 	114 	108
f 81 	726 	82
f 109 	123 	114
f 77 	76 	722
f 76 	723 	722
f 722 	78 	77
f 118 	11 	117
f 120 	121 	11
f 121 	122 	11
f 117 	11 	122
f 126 	11 	125
f 127 	11 	126
f 124 	125 	11
f 128 	11 	127
f 123 	109 	115
f 115 	116 	123
f 116 	130 	123
f 825 	824 	131
f 116 	672 	130
f 731 	73 	78
f 727 	80 	79
f 139 	142 	136
f 22 	21 	86
f 731 	74 	73
f 160 	145 	144
f 640 	599 	146
f 152 	167 	150
f 102 	22 	86
f 167 	152 	168
f 154 	168 	153
f 795 	12 	112
f 112 	12 	111
f 153 	168 	152
f 132 	111 	798
f 132 	798 	791
f 156 	150 	151
f 156 	151 	157
f 156 	159 	150
f 159 	158 	150
f 152 	150 	158
f 161 	153 	152
f 161 	152 	158
f 154 	153 	163
f 153 	161 	163
f 166 	293 	167
f 150 	167 	151
f 879 	883 	167
f 167 	168 	880
f 167 	880 	879
f 174 	30 	175
f 169 	148 	410
f 178 	177 	595
f 180 	181 	113
f 100 	113 	181
f 180 	113 	114
f 183 	870 	184
f 119 	120 	11
f 185 	119 	11
f 11 	190 	185
f 184 	870 	186
f 118 	124 	11
f 11 	128 	187
f 11 	187 	1
f 1 	2 	11
f 78 	73 	190
f 80 	81 	190
f 181 	666 	100
f 186 	870 	188
f 189 	83 	190
f 83 	79 	190
f 79 	80 	190
f 11 	2 	10
f 73 	74 	190
f 65 	60 	190
f 60 	189 	190
f 142 	109 	108
f 208 	803 	352
f 142 	115 	109
f 193 	192 	911
f 192 	349 	911
f 413 	412 	193
f 160 	144 	162
f 164 	162 	143
f 144 	143 	162
f 193 	198 	413
f 198 	911 	200
f 224 	199 	201
f 205 	233 	201
f 204 	416 	203
f 416 	415 	203
f 204 	203 	914
f 207 	239 	205
f 204 	206 	416
f 862 	187 	128
f 208 	418 	206
f 295 	207 	205
f 24 	83 	189
f 201 	295 	205
f 265 	143 	144
f 216 	228 	215
f 228 	229 	215
f 221 	222 	231
f 230 	231 	222
f 222 	214 	230
f 229 	230 	214
f 214 	215 	229
f 199 	223 	157
f 199 	157 	151
f 223 	199 	225
f 224 	225 	199
f 224 	201 	233
f 231 	232 	221
f 220 	221 	232
f 232 	234 	220
f 219 	220 	234
f 234 	235 	219
f 218 	219 	235
f 235 	236 	218
f 217 	218 	236
f 236 	237 	217
f 227 	217 	237
f 237 	238 	227
f 226 	227 	238
f 205 	239 	233
f 212 	251 	421
f 276 	909 	277
f 266 	254 	909
f 251 	916 	255
f 909 	254 	255
f 422 	421 	255
f 247 	269 	246
f 245 	246 	270
f 244 	245 	270
f 270 	259 	244
f 243 	244 	259
f 259 	260 	243
f 248 	268 	247
f 249 	267 	248
f 250 	275 	249
f 242 	243 	260
f 260 	261 	242
f 254 	422 	255
f 251 	255 	421
f 210 	257 	258
f 241 	242 	261
f 261 	262 	241
f 240 	241 	262
f 262 	263 	240
f 256 	240 	263
f 263 	264 	256
f 216 	256 	264
f 216 	264 	228
f 211 	265 	210
f 265 	257 	210
f 269 	247 	268
f 270 	246 	269
f 268 	248 	267
f 271 	274 	250
f 272 	273 	271
f 274 	271 	273
f 275 	250 	274
f 267 	249 	275
f 266 	423 	254
f 144 	145 	265
f 311 	909 	96
f 265 	145 	146
f 266 	909 	276
f 211 	305 	265
f 266 	276 	424
f 215 	388 	216
f 29 	844 	175
f 277 	425 	276
f 598 	265 	597
f 175 	30 	29
f 129 	107 	253
f 596 	597 	265
f 654 	178 	595
f 376 	218 	217
f 214 	222 	384
f 384 	215 	214
f 595 	46 	47
f 115 	142 	116
f 123 	180 	114
f 208 	352 	418
f 393 	232 	231
f 232 	393 	234
f 69 	654 	49
f 336 	286 	811
f 48 	811 	286
f 397 	237 	236
f 69 	70 	654
f 237 	397 	238
f 427 	48 	286
f 427 	429 	48
f 56 	48 	429
f 376 	217 	227
f 429 	430 	56
f 216 	388 	256
f 91 	90 	432
f 432 	433 	91
f 519 	242 	241
f 243 	242 	520
f 519 	520 	242
f 290 	405 	403
f 291 	289 	290
f 177 	307 	202
f 166 	292 	293
f 201 	199 	293
f 199 	151 	293
f 151 	167 	293
f 293 	295 	201
f 89 	86 	287
f 294 	299 	139
f 142 	139 	299
f 233 	297 	224
f 202 	287 	141
f 142 	299 	116
f 283 	322 	284
f 325 	257 	265
f 265 	285 	325
f 324 	325 	285
f 322 	283 	603
f 265 	305 	306
f 306 	143 	265
f 306 	164 	143
f 164 	306 	165
f 165 	306 	305
f 224 	297 	225
f 210 	258 	317
f 308 	299 	294
f 308 	307 	299
f 233 	239 	297
f 239 	209 	297
f 209 	15 	297
f 312 	299 	307
f 313 	258 	323
f 307 	304 	312
f 278 	309 	279
f 310 	309 	278
f 361 	147 	362
f 149 	362 	147
f 94 	435 	95
f 148 	356 	149
f 95 	436 	96
f 96 	437 	311
f 438 	311 	437
f 277 	311 	438
f 107 	105 	194
f 105 	195 	194
f 316 	326 	811
f 106 	110 	288
f 195 	105 	298
f 252 	107 	194
f 211 	317 	314
f 106 	288 	105
f 682 	674 	312
f 298 	105 	288
f 253 	107 	252
f 304 	319 	312
f 313 	317 	258
f 303 	319 	304
f 157 	318 	156
f 211 	210 	317
f 318 	159 	156
f 280 	129 	253
f 129 	281 	320
f 225 	318 	223
f 314 	327 	211
f 225 	297 	296
f 296 	318 	225
f 157 	223 	318
f 312 	674 	673
f 280 	281 	129
f 135 	133 	288
f 257 	325 	323
f 312 	673 	672
f 299 	312 	672
f 332 	279 	309
f 285 	284 	321
f 284 	322 	321
f 324 	285 	321
f 699 	700 	178
f 178 	179 	699
f 257 	323 	258
f 158 	159 	318
f 440 	316 	315
f 328 	811 	326
f 440 	326 	316
f 443 	329 	328
f 326 	441 	328
f 330 	331 	811
f 331 	336 	811
f 332 	282 	279
f 305 	327 	165
f 443 	444 	329
f 305 	211 	327
f 446 	331 	330
f 158 	318 	161
f 161 	318 	163
f 340 	24 	339
f 341 	24 	340
f 338 	339 	24
f 342 	24 	341
f 446 	447 	331
f 133 	134 	288
f 345 	812 	98
f 450 	345 	98
f 450 	98 	451
f 99 	451 	98
f 138 	135 	288
f 101 	452 	99
f 451 	99 	452
f 138 	288 	110
f 452 	101 	453
f 182 	453 	101
f 288 	134 	290
f 183 	454 	182
f 453 	182 	454
f 454 	183 	184
f 456 	455 	186
f 186 	188 	456
f 344 	70 	54
f 458 	457 	191
f 191 	911 	349
f 459 	458 	349
f 346 	353 	368
f 352 	812 	354
f 347 	351 	346
f 134 	140 	290
f 351 	353 	346
f 354 	812 	355
f 348 	351 	347
f 369 	812 	370
f 343 	348 	347
f 344 	55 	343
f 343 	55 	348
f 344 	54 	55
f 163 	318 	155
f 128 	127 	862
f 372 	53 	359
f 866 	125 	124
f 520 	244 	243
f 360 	350 	54
f 863 	862 	127
f 310 	347 	346
f 248 	540 	249
f 540 	250 	249
f 362 	149 	356
f 365 	367 	742
f 363 	368 	367
f 462 	461 	355
f 371 	812 	373
f 554 	269 	268
f 355 	369 	462
f 554 	270 	269
f 54 	61 	360
f 370 	371 	464
f 464 	371 	465
f 373 	465 	371
f 374 	812 	345
f 373 	812 	374
f 372 	360 	51
f 377 	218 	376
f 377 	378 	218
f 890 	121 	120
f 219 	378 	220
f 379 	381 	220
f 221 	383 	222
f 222 	383 	384
f 215 	384 	385
f 385 	388 	215
f 373 	374 	466
f 373 	466 	465
f 366 	361 	739
f 14 	375 	445
f 345 	449 	374
f 352 	460 	418
f 228 	547 	389
f 228 	389 	229
f 390 	229 	389
f 390 	391 	229
f 392 	231 	230
f 393 	231 	392
f 394 	234 	393
f 235 	234 	394
f 396 	236 	235
f 397 	236 	396
f 398 	238 	397
f 226 	238 	398
f 219 	218 	378
f 379 	220 	378
f 221 	220 	381
f 381 	383 	221
f 147 	387 	386
f 361 	387 	147
f 147 	386 	401
f 230 	229 	391
f 391 	392 	230
f 235 	394 	395
f 402 	411 	147
f 395 	396 	235
f 226 	398 	399
f 399 	400 	226
f 227 	226 	400
f 227 	400 	376
f 256 	388 	516
f 516 	517 	256
f 410 	148 	149
f 520 	521 	244
f 521 	245 	244
f 245 	523 	246
f 523 	247 	246
f 248 	247 	539
f 539 	540 	248
f 250 	540 	541
f 402 	147 	401
f 260 	543 	261
f 544 	545 	261
f 290 	403 	404
f 404 	291 	290
f 642 	600 	601
f 407 	375 	408
f 192 	193 	412
f 198 	414 	413
f 198 	200 	414
f 415 	414 	200
f 200 	203 	415
f 206 	417 	416
f 420 	213 	419
f 212 	419 	213
f 212 	421 	419
f 147 	411 	410
f 422 	254 	423
f 424 	276 	425
f 286 	426 	427
f 732 	733 	410
f 92 	91 	433
f 149 	147 	410
f 434 	93 	433
f 93 	434 	94
f 410 	734 	732
f 315 	439 	440
f 326 	440 	441
f 443 	328 	441
f 330 	444 	446
f 336 	331 	447
f 447 	426 	336
f 315 	213 	420
f 335 	334 	744
f 188 	457 	456
f 188 	191 	457
f 191 	349 	458
f 349 	192 	459
f 412 	459 	192
f 460 	352 	354
f 370 	463 	369
f 750 	744 	334
f 206 	418 	417
f 266 	424 	423
f 438 	425 	277
f 887 	867 	117
f 124 	118 	866
f 562 	563 	428
f 333 	334 	428
f 335 	428 	334
f 335 	473 	428
f 375 	407 	445
f 90 	56 	430
f 375 	431 	408
f 90 	430 	432
f 406 	431 	375
f 92 	433 	93
f 435 	94 	434
f 436 	95 	435
f 407 	408 	431
f 330 	329 	444
f 286 	336 	426
f 439 	315 	420
f 466 	374 	449
f 406 	14 	448
f 375 	14 	406
f 450 	449 	345
f 118 	117 	867
f 184 	455 	454
f 184 	186 	455
f 888 	122 	121
f 122 	888 	117
f 354 	461 	460
f 354 	355 	461
f 867 	866 	118
f 462 	369 	463
f 370 	464 	463
f 44 	43 	357
f 358 	44 	357
f 467 	468 	469
f 467 	469 	470
f 358 	445 	40
f 40 	44 	358
f 887 	117 	888
f 407 	41 	445
f 43 	42 	442
f 890 	120 	119
f 442 	357 	43
f 428 	473 	471
f 471 	472 	628
f 757 	756 	473
f 472 	471 	473
f 758 	757 	473
f 758 	473 	474
f 335 	474 	473
f 758 	474 	335
f 483 	484 	482
f 481 	482 	484
f 480 	481 	484
f 337 	24 	484
f 351 	382 	380
f 431 	406 	45
f 448 	45 	406
f 367 	380 	498
f 527 	526 	491
f 346 	368 	363
f 448 	87 	45
f 380 	367 	368
f 742 	364 	365
f 367 	365 	363
f 506 	505 	626
f 471 	626 	505
f 626 	510 	506
f 506 	809 	505
f 809 	509 	508
f 502 	511 	503
f 507 	503 	511
f 508 	509 	633
f 504 	512 	508
f 511 	502 	513
f 502 	501 	513
f 514 	300 	88
f 87 	448 	514
f 87 	514 	88
f 262 	545 	263
f 263 	546 	264
f 547 	264 	546
f 228 	264 	547
f 272 	549 	273
f 274 	273 	550
f 549 	550 	273
f 319 	303 	515
f 274 	550 	275
f 267 	275 	552
f 507 	319 	503
f 267 	552 	268
f 268 	553 	554
f 319 	515 	503
f 250 	541 	271
f 240 	256 	517
f 241 	240 	518
f 517 	518 	240
f 518 	519 	241
f 245 	521 	522
f 332 	738 	801
f 865 	125 	866
f 865 	126 	125
f 801 	529 	332
f 840 	507 	511
f 475 	491 	525
f 491 	526 	525
f 614 	133 	534
f 526 	528 	529
f 527 	528 	526
f 528 	332 	529
f 576 	662 	663
f 663 	828 	576
f 137 	531 	136
f 531 	139 	136
f 604 	532 	533
f 85 	139 	84
f 536 	84 	139
f 85 	89 	139
f 410 	643 	734
f 531 	536 	139
f 536 	576 	84
f 576 	104 	84
f 537 	576 	536
f 531 	537 	536
f 537 	531 	137
f 137 	136 	537
f 136 	142 	537
f 20 	891 	185
f 522 	523 	245
f 523 	538 	247
f 538 	539 	247
f 542 	259 	270
f 260 	259 	543
f 542 	543 	259
f 544 	261 	543
f 262 	261 	545
f 546 	263 	545
f 272 	548 	549
f 550 	551 	275
f 551 	552 	275
f 553 	268 	552
f 555 	270 	554
f 270 	555 	542
f 556 	271 	541
f 272 	271 	548
f 556 	548 	271
f 693 	695 	410
f 557 	558 	548
f 557 	538 	523
f 523 	522 	557
f 545 	558 	546
f 376 	400 	560
f 400 	399 	560
f 399 	398 	559
f 559 	397 	396
f 395 	559 	396
f 518 	517 	557
f 517 	516 	557
f 516 	388 	557
f 385 	560 	388
f 557 	388 	560
f 560 	381 	379
f 376 	560 	377
f 377 	560 	378
f 560 	383 	381
f 378 	560 	379
f 383 	560 	384
f 560 	385 	384
f 390 	389 	559
f 395 	394 	559
f 390 	559 	391
f 391 	559 	392
f 392 	559 	393
f 393 	559 	394
f 74 	730 	185
f 397 	559 	398
f 559 	560 	399
f 518 	557 	519
f 519 	557 	520
f 520 	557 	521
f 521 	557 	522
f 20 	185 	730
f 538 	557 	539
f 539 	557 	540
f 540 	557 	541
f 556 	541 	557
f 542 	558 	543
f 543 	558 	544
f 544 	558 	545
f 559 	389 	558
f 546 	558 	547
f 547 	558 	389
f 548 	558 	549
f 549 	558 	550
f 550 	558 	551
f 554 	553 	558
f 551 	558 	552
f 552 	558 	553
f 554 	558 	555
f 555 	558 	542
f 548 	556 	557
f 563 	487 	333
f 97 	537 	108
f 662 	576 	537
f 104 	576 	828
f 108 	537 	142
f 580 	581 	667
f 489 	488 	500
f 493 	500 	494
f 499 	318 	488
f 787 	485 	500
f 495 	494 	500
f 500 	493 	492
f 500 	492 	490
f 490 	489 	500
f 496 	155 	318
f 844 	579 	173
f 582 	583 	584
f 582 	584 	585
f 586 	587 	588
f 586 	588 	589
f 470 	585 	588
f 467 	470 	588
f 589 	588 	585
f 585 	584 	589
f 560 	589 	584
f 557 	560 	584
f 496 	318 	497
f 500 	488 	318
f 497 	318 	499
f 690 	577 	575
f 486 	485 	787
f 495 	500 	485
f 579 	170 	173
f 283 	593 	594
f 487 	486 	787
f 579 	578 	170
f 487 	787 	749
f 139 	89 	287
f 102 	89 	85
f 141 	287 	86
f 265 	599 	596
f 591 	590 	265
f 592 	593 	265
f 141 	595 	177
f 593 	283 	284
f 593 	284 	285
f 593 	285 	265
f 592 	265 	590
f 591 	265 	598
f 629 	591 	630
f 770 	478 	759
f 636 	630 	597
f 598 	597 	630
f 265 	146 	599
f 598 	630 	591
f 637 	596 	599
f 581 	671 	667
f 824 	581 	131
f 694 	602 	695
f 442 	14 	357
f 14 	358 	357
f 300 	514 	14
f 410 	411 	693
f 14 	302 	300
f 533 	535 	604
f 675 	386 	366
f 605 	534 	532
f 530 	180 	123
f 409 	410 	695
f 532 	606 	607
f 532 	607 	605
f 10 	615 	11
f 604 	606 	532
f 607 	608 	534
f 607 	534 	605
f 608 	612 	534
f 409 	695 	602
f 604 	535 	530
f 691 	603 	601
f 123 	130 	530
f 366 	387 	361
f 6 	5 	619
f 140 	196 	290
f 196 	197 	290
f 604 	530 	609
f 197 	610 	290
f 290 	610 	405
f 607 	606 	608
f 611 	606 	604
f 614 	611 	609
f 614 	534 	612
f 608 	606 	611
f 608 	611 	612
f 615 	10 	9
f 613 	612 	611
f 614 	613 	611
f 604 	609 	611
f 614 	612 	613
f 659 	2 	660
f 524 	614 	702
f 574 	190 	11
f 701 	841 	524
f 618 	24 	617
f 616 	617 	24
f 619 	24 	618
f 620 	24 	619
f 615 	616 	24
f 621 	622 	24
f 622 	659 	24
f 6 	619 	7
f 14 	442 	664
f 1 	660 	2
f 304 	177 	303
f 178 	303 	177
f 637 	597 	596
f 625 	594 	593
f 562 	486 	563
f 178 	515 	303
f 307 	177 	304
f 476 	477 	766
f 308 	202 	307
f 202 	308 	294
f 139 	287 	202
f 139 	202 	294
f 479 	632 	777
f 477 	476 	479
f 478 	477 	479
f 476 	709 	479
f 708 	716 	479
f 709 	708 	479
f 592 	623 	593
f 632 	479 	631
f 623 	592 	624
f 471 	628 	626
f 593 	623 	625
f 628 	631 	626
f 640 	641 	627
f 631 	777 	632
f 634 	508 	633
f 633 	779 	780
f 633 	780 	634
f 701 	524 	702
f 164 	165 	627
f 325 	324 	627
f 627 	592 	590
f 590 	591 	627
f 627 	591 	629
f 624 	592 	627
f 321 	623 	624
f 625 	623 	321
f 322 	625 	321
f 321 	624 	627
f 630 	636 	629
f 636 	637 	627
f 627 	629 	636
f 323 	325 	627
f 627 	313 	323
f 162 	164 	627
f 327 	314 	627
f 327 	627 	165
f 627 	317 	313
f 314 	317 	627
f 627 	324 	321
f 640 	627 	637
f 638 	635 	843
f 597 	637 	636
f 641 	160 	627
f 162 	627 	160
f 160 	641 	145
f 599 	640 	637
f 641 	640 	146
f 641 	146 	145
f 682 	312 	319
f 838 	319 	507
f 141 	46 	595
f 19 	779 	856
f 47 	49 	595
f 634 	504 	508
f 780 	504 	634
f 644 	654 	344
f 647 	650 	646
f 645 	646 	650
f 647 	646 	763
f 846 	651 	649
f 595 	49 	654
f 763 	646 	781
f 344 	343 	644
f 644 	179 	654
f 179 	178 	654
f 70 	344 	654
f 765 	657 	769
f 769 	653 	652
f 2 	659 	3
f 619 	618 	7
f 618 	8 	7
f 574 	11 	615
f 838 	839 	319
f 537 	97 	661
f 662 	537 	661
f 840 	838 	507
f 661 	97 	666
f 100 	666 	97
f 664 	665 	14
f 661 	666 	662
f 667 	662 	666
f 668 	664 	669
f 664 	668 	665
f 664 	670 	669
f 668 	669 	670
f 580 	667 	666
f 14 	665 	174
f 666 	181 	580
f 663 	671 	828
f 665 	30 	174
f 667 	671 	663
f 72 	665 	668
f 667 	663 	662
f 493 	569 	568
f 664 	442 	670
f 42 	72 	670
f 278 	279 	178
f 279 	282 	178
f 561 	485 	562
f 487 	563 	486
f 178 	700 	278
f 501 	502 	178
f 503 	515 	178
f 503 	178 	502
f 299 	672 	116
f 493 	568 	492
f 141 	177 	202
f 677 	676 	672
f 672 	673 	677
f 677 	673 	674
f 141 	86 	789
f 789 	46 	141
f 530 	130 	676
f 366 	739 	675
f 676 	609 	530
f 401 	386 	675
f 130 	672 	676
f 179 	698 	699
f 677 	609 	676
f 387 	366 	386
f 698 	179 	644
f 674 	678 	677
f 644 	347 	310
f 644 	343 	347
f 682 	703 	674
f 682 	683 	703
f 363 	310 	346
f 683 	682 	319
f 687 	282 	332
f 402 	680 	411
f 3 	622 	4
f 616 	9 	617
f 513 	501 	688
f 501 	684 	688
f 499 	488 	573
f 687 	684 	282
f 681 	411 	680
f 489 	490 	565
f 680 	402 	401
f 684 	687 	688
f 578 	686 	170
f 490 	492 	566
f 679 	680 	401
f 567 	492 	568
f 401 	675 	679
f 823 	688 	687
f 575 	785 	690
f 621 	4 	622
f 5 	4 	620
f 681 	693 	411
f 696 	527 	491
f 600 	691 	601
f 9 	616 	615
f 686 	577 	690
f 697 	603 	691
f 692 	602 	694
f 577 	686 	578
f 602 	692 	600
f 683 	319 	837
f 692 	691 	600
f 697 	741 	322
f 609 	678 	703
f 603 	697 	322
f 703 	614 	609
f 609 	677 	678
f 696 	821 	527
f 422 	423 	421
f 419 	421 	423
f 423 	424 	419
f 420 	419 	424
f 425 	420 	424
f 614 	703 	702
f 678 	674 	703
f 415 	416 	414
f 416 	417 	414
f 413 	414 	417
f 418 	458 	417
f 412 	413 	417
f 683 	702 	703
f 435 	420 	436
f 434 	420 	435
f 437 	436 	420
f 433 	420 	434
f 432 	420 	433
f 438 	437 	420
f 430 	420 	432
f 429 	420 	430
f 427 	420 	429
f 426 	420 	427
f 425 	438 	420
f 837 	702 	683
f 446 	420 	447
f 444 	420 	446
f 443 	420 	444
f 441 	420 	443
f 440 	420 	441
f 439 	420 	440
f 426 	447 	420
f 702 	837 	701
f 687 	528 	826
f 458 	418 	457
f 456 	457 	418
f 455 	456 	418
f 459 	417 	458
f 412 	417 	459
f 454 	455 	418
f 460 	461 	418
f 466 	449 	418
f 449 	450 	418
f 450 	451 	418
f 452 	418 	451
f 453 	418 	452
f 454 	418 	453
f 601 	603 	642
f 687 	332 	528
f 465 	418 	464
f 466 	418 	465
f 461 	462 	418
f 464 	418 	463
f 462 	463 	418
f 527 	821 	528
f 105 	180 	530
f 639 	696 	197
f 735 	737 	643
f 178 	684 	501
f 684 	178 	282
f 110 	530 	535
f 134 	133 	524
f 310 	278 	700
f 699 	310 	700
f 524 	133 	614
f 498 	403 	475
f 698 	644 	310
f 698 	310 	699
f 350 	55 	54
f 723 	660 	722
f 724 	660 	723
f 725 	660 	724
f 726 	660 	725
f 727 	660 	726
f 728 	660 	727
f 372 	51 	52
f 372 	52 	53
f 350 	348 	55
f 494 	569 	493
f 51 	360 	61
f 569 	494 	570
f 570 	495 	561
f 350 	382 	348
f 353 	351 	380
f 380 	368 	353
f 37 	36 	716
f 3 	659 	622
f 348 	382 	351
f 572 	571 	497
f 573 	572 	499
f 497 	499 	572
f 403 	405 	475
f 729 	169 	410
f 733 	729 	410
f 793 	169 	729
f 365 	364 	309
f 310 	365 	309
f 34 	712 	713
f 310 	363 	365
f 298 	360 	372
f 721 	660 	731
f 498 	742 	367
f 475 	405 	491
f 409 	602 	642
f 642 	643 	410
f 409 	642 	410
f 38 	39 	709
f 600 	642 	602
f 706 	705 	603
f 603 	705 	704
f 603 	704 	642
f 283 	706 	603
f 195 	372 	359
f 581 	281 	131
f 252 	111 	253
f 766 	38 	476
f 625 	707 	594
f 283 	594 	707
f 283 	707 	706
f 580 	129 	320
f 696 	491 	610
f 610 	197 	696
f 34 	713 	714
f 364 	742 	738
f 738 	309 	364
f 281 	132 	131
f 736 	361 	362
f 734 	643 	737
f 643 	642 	736
f 643 	736 	735
f 736 	642 	704
f 734 	737 	732
f 288 	350 	360
f 486 	562 	485
f 333 	487 	749
f 289 	291 	382
f 621 	620 	4
f 5 	620 	619
f 750 	334 	749
f 333 	749 	334
f 8 	618 	617
f 742 	498 	475
f 8 	617 	9
f 758 	744 	743
f 746 	758 	743
f 758 	335 	744
f 747 	757 	746
f 748 	776 	757
f 744 	750 	743
f 743 	751 	746
f 752 	746 	751
f 754 	747 	752
f 746 	752 	747
f 748 	747 	753
f 751 	743 	750
f 753 	747 	754
f 755 	748 	753
f 775 	628 	756
f 775 	756 	757
f 758 	746 	757
f 747 	748 	757
f 472 	473 	756
f 767 	477 	478
f 759 	777 	760
f 761 	760 	777
f 762 	761 	776
f 777 	776 	761
f 759 	479 	777
f 564 	488 	489
f 489 	565 	564
f 566 	565 	490
f 567 	566 	492
f 495 	570 	494
f 485 	561 	495
f 571 	496 	497
f 564 	573 	488
f 333 	428 	563
f 562 	428 	561
f 566 	428 	565
f 567 	428 	566
f 568 	428 	567
f 569 	428 	568
f 570 	428 	569
f 561 	428 	570
f 860 	861 	428
f 565 	428 	564
f 781 	778 	658
f 658 	763 	781
f 767 	766 	477
f 478 	770 	767
f 759 	760 	770
f 771 	770 	760
f 479 	759 	478
f 771 	760 	761
f 658 	778 	655
f 773 	774 	762
f 748 	755 	762
f 652 	655 	764
f 652 	764 	768
f 768 	769 	652
f 653 	769 	657
f 656 	765 	176
f 656 	657 	765
f 171 	782 	176
f 771 	761 	772
f 783 	782 	171
f 774 	772 	762
f 761 	762 	772
f 773 	762 	755
f 472 	756 	628
f 775 	757 	776
f 762 	776 	748
f 628 	775 	631
f 776 	631 	775
f 776 	777 	631
f 772 	779 	771
f 774 	779 	772
f 764 	655 	778
f 36 	37 	19
f 770 	779 	767
f 771 	779 	770
f 766 	767 	779
f 656 	176 	782
f 739 	741 	691
f 741 	707 	740
f 779 	19 	39
f 779 	38 	766
f 685 	690 	785
f 481 	59 	482
f 694 	695 	739
f 60 	480 	24
f 736 	786 	361
f 301 	689 	784
f 361 	786 	739
f 704 	705 	739
f 785 	784 	689
f 706 	741 	705
f 785 	689 	685
f 786 	704 	739
f 736 	704 	786
f 633 	856 	779
f 783 	171 	301
f 739 	705 	741
f 787 	504 	780
f 741 	706 	707
f 783 	301 	784
f 788 	825 	131
f 356 	800 	802
f 790 	789 	86
f 356 	792 	793
f 86 	21 	790
f 112 	359 	794
f 53 	794 	359
f 112 	794 	795
f 794 	53 	46
f 789 	794 	46
f 788 	791 	797
f 796 	797 	791
f 795 	794 	789
f 790 	795 	789
f 12 	795 	21
f 790 	21 	795
f 132 	788 	131
f 788 	132 	791
f 169 	793 	792
f 738 	742 	745
f 745 	525 	738
f 23 	22 	798
f 148 	792 	356
f 148 	169 	792
f 356 	793 	800
f 738 	332 	309
f 799 	798 	22
f 736 	356 	735
f 798 	799 	791
f 796 	791 	799
f 736 	362 	356
f 799 	102 	103
f 799 	22 	102
f 799 	103 	796
f 475 	525 	745
f 796 	103 	797
f 802 	737 	356
f 104 	797 	103
f 742 	475 	745
f 104 	827 	797
f 356 	737 	735
f 350 	290 	382
f 505 	803 	804
f 471 	505 	804
f 505 	809 	805
f 807 	803 	805
f 505 	805 	803
f 912 	804 	913
f 803 	913 	804
f 352 	803 	807
f 912 	471 	804
f 808 	506 	510
f 806 	805 	809
f 810 	809 	808
f 808 	809 	506
f 915 	808 	510
f 915 	213 	808
f 675 	739 	679
f 809 	508 	806
f 739 	680 	679
f 810 	811 	809
f 509 	809 	811
f 329 	811 	328
f 739 	681 	680
f 806 	508 	805
f 512 	812 	805
f 508 	512 	805
f 807 	805 	812
f 691 	741 	697
f 691 	692 	739
f 695 	693 	739
f 693 	681 	739
f 529 	801 	525
f 738 	525 	801
f 369 	355 	812
f 812 	352 	807
f 315 	316 	811
f 315 	811 	810
f 370 	812 	371
f 692 	694 	739
f 729 	733 	800
f 800 	793 	729
f 831 	638 	843
f 732 	800 	733
f 800 	732 	802
f 732 	737 	802
f 707 	625 	740
f 322 	740 	625
f 687 	826 	823
f 755 	753 	787
f 754 	787 	753
f 252 	194 	112
f 835 	513 	836
f 112 	111 	252
f 780 	755 	787
f 755 	779 	773
f 755 	780 	779
f 774 	773 	779
f 320 	581 	580
f 754 	752 	787
f 751 	787 	752
f 740 	322 	741
f 751 	750 	787
f 749 	787 	750
f 132 	281 	280
f 111 	132 	253
f 253 	132 	280
f 291 	404 	380
f 111 	23 	798
f 111 	12 	23
f 709 	476 	38
f 341 	340 	66
f 482 	59 	58
f 65 	342 	66
f 714 	35 	34
f 338 	64 	339
f 35 	714 	715
f 37 	716 	708
f 74 	731 	730
f 813 	814 	815
f 813 	815 	816
f 817 	818 	819
f 817 	819 	820
f 468 	820 	816
f 469 	468 	816
f 813 	816 	820
f 820 	819 	813
f 558 	813 	819
f 559 	558 	819
f 583 	814 	813
f 583 	813 	584
f 585 	816 	815
f 585 	815 	582
f 582 	815 	814
f 582 	814 	583
f 584 	813 	558
f 584 	558 	557
f 816 	470 	469
f 585 	470 	816
f 589 	819 	818
f 589 	818 	586
f 587 	817 	820
f 587 	820 	588
f 586 	818 	817
f 586 	817 	587
f 560 	559 	819
f 560 	819 	589
f 588 	820 	468
f 588 	468 	467
f 382 	291 	380
f 480 	60 	481
f 341 	66 	342
f 68 	67 	339
f 58 	57 	482
f 513 	688 	836
f 24 	189 	60
f 513 	835 	511
f 68 	339 	64
f 338 	62 	64
f 484 	63 	62
f 483 	57 	484
f 342 	65 	190
f 638 	831 	830
f 481 	60 	59
f 67 	340 	339
f 337 	484 	62
f 63 	484 	57
f 483 	482 	57
f 190 	918 	342
f 696 	822 	821
f 67 	66 	340
f 829 	822 	696
f 829 	696 	639
f 337 	62 	338
f 787 	500 	504
f 829 	833 	822
f 688 	833 	836
f 825 	828 	824
f 821 	822 	826
f 823 	826 	822
f 797 	827 	788
f 821 	826 	528
f 827 	825 	788
f 688 	823 	833
f 828 	825 	827
f 832 	830 	835
f 638 	830 	832
f 824 	671 	581
f 829 	639 	832
f 824 	828 	671
f 638 	832 	639
f 823 	822 	833
f 832 	833 	829
f 830 	831 	834
f 834 	835 	830
f 832 	835 	836
f 836 	833 	832
f 835 	834 	511
f 711 	32 	710
f 839 	837 	319
f 83 	24 	720
f 728 	79 	720
f 83 	720 	79
f 524 	841 	842
f 80 	727 	726
f 82 	726 	725
f 635 	524 	842
f 724 	75 	725
f 635 	842 	843
f 839 	841 	701
f 839 	701 	837
f 839 	838 	841
f 838 	842 	841
f 840 	843 	842
f 838 	840 	842
f 843 	840 	831
f 834 	831 	840
f 511 	834 	840
f 106 	105 	530
f 530 	110 	106
f 533 	532 	138
f 635 	134 	524
f 534 	133 	135
f 639 	197 	196
f 194 	195 	359
f 140 	638 	196
f 535 	533 	110
f 138 	110 	533
f 134 	635 	140
f 635 	638 	140
f 382 	290 	289
f 638 	639 	196
f 534 	135 	532
f 138 	532 	135
f 180 	105 	107
f 107 	181 	180
f 580 	181 	107
f 580 	107 	129
f 359 	112 	194
f 290 	350 	288
f 491 	405 	610
f 172 	175 	844
f 172 	844 	173
f 281 	581 	320
f 525 	526 	529
f 404 	403 	498
f 380 	404 	498
f 846 	649 	849
f 845 	651 	846
f 845 	650 	651
f 850 	848 	851
f 847 	851 	848
f 847 	849 	648
f 648 	851 	847
f 649 	648 	849
f 645 	650 	845
f 718 	16 	717
f 708 	39 	37
f 708 	709 	39
f 50 	854 	855
f 855 	850 	50
f 728 	727 	79
f 82 	725 	75
f 75 	724 	723
f 854 	877 	853
f 78 	722 	721
f 719 	710 	31
f 31 	710 	32
f 855 	854 	853
f 855 	853 	852
f 32 	711 	33
f 712 	33 	711
f 850 	852 	848
f 34 	33 	712
f 850 	855 	852
f 50 	784 	785
f 36 	35 	715
f 785 	575 	50
f 715 	716 	36
f 844 	29 	50
f 29 	30 	50
f 78 	721 	731
f 578 	579 	50
f 851 	50 	850
f 650 	647 	50
f 15 	717 	16
f 719 	17 	718
f 16 	718 	17
f 782 	783 	50
f 783 	784 	50
f 17 	719 	31
f 656 	782 	50
f 715 	714 	479
f 716 	715 	479
f 50 	577 	578
f 719 	718 	479
f 710 	719 	479
f 718 	717 	479
f 711 	710 	479
f 712 	711 	479
f 714 	713 	479
f 713 	712 	479
f 579 	844 	50
f 717 	886 	479
f 886 	884 	479
f 575 	577 	50
f 856 	857 	902
f 653 	657 	50
f 857 	856 	633
f 50 	851 	648
f 858 	909 	857
f 857 	633 	509
f 50 	763 	658
f 652 	653 	50
f 655 	652 	50
f 329 	330 	811
f 811 	56 	858
f 92 	93 	858
f 858 	95 	909
f 857 	509 	858
f 509 	811 	858
f 50 	657 	656
f 856 	902 	19
f 658 	655 	50
f 50 	648 	649
f 651 	650 	50
f 50 	647 	763
f 649 	651 	50
f 14 	845 	846
f 865 	866 	864
f 863 	864 	866
f 862 	863 	866
f 867 	887 	917
f 14 	645 	845
f 14 	646 	645
f 14 	764 	778
f 14 	768 	764
f 14 	769 	768
f 14 	847 	848
f 14 	846 	849
f 14 	765 	769
f 14 	176 	765
f 14 	781 	646
f 14 	849 	847
f 14 	778 	781
f 14 	171 	176
f 14 	685 	689
f 14 	686 	690
f 14 	170 	686
f 14 	172 	173
f 14 	174 	175
f 14 	175 	172
f 14 	173 	170
f 14 	690 	685
f 171 	14 	301
f 14 	689 	301
f 861 	571 	428
f 573 	428 	572
f 564 	428 	573
f 288 	360 	298
f 372 	195 	298
f 126 	865 	864
f 864 	863 	126
f 504 	869 	868
f 868 	512 	504
f 154 	860 	859
f 183 	182 	870
f 182 	101 	870
f 812 	870 	99
f 101 	99 	870
f 870 	812 	512
f 868 	870 	512
f 318 	903 	500
f 155 	861 	860
f 571 	861 	496
f 155 	496 	861
f 504 	500 	869
f 863 	127 	126
f 163 	860 	154
f 874 	853 	877
f 163 	155 	860
f 878 	871 	876
f 292 	166 	882
f 166 	167 	883
f 875 	18 	872
f 872 	871 	878
f 872 	878 	875
f 871 	873 	876
f 168 	154 	859
f 880 	168 	859
f 877 	876 	874
f 876 	873 	874
f 859 	860 	428
f 572 	428 	571
f 880 	859 	879
f 882 	166 	883
f 50 	875 	878
f 889 	890 	917
f 890 	891 	917
f 888 	889 	917
f 891 	20 	917
f 896 	881 	50
f 875 	50 	892
f 897 	896 	50
f 87 	88 	50
f 45 	87 	50
f 892 	18 	875
f 45 	50 	41
f 892 	881 	13
f 209 	884 	886
f 892 	13 	18
f 50 	893 	894
f 209 	886 	15
f 28 	13 	896
f 881 	896 	13
f 894 	897 	50
f 119 	185 	891
f 26 	896 	897
f 889 	121 	890
f 895 	300 	302
f 895 	88 	300
f 895 	302 	893
f 25 	893 	302
f 25 	27 	893
f 894 	27 	897
f 26 	28 	896
f 717 	15 	886
f 891 	890 	119
f 889 	888 	121
f 885 	884 	207
f 239 	207 	884
f 884 	209 	239
f 885 	207 	899
f 292 	882 	900
f 900 	901 	292
f 292 	901 	293
f 898 	899 	293
f 295 	293 	899
f 899 	207 	295
f 884 	885 	479
f 631 	479 	885
f 885 	899 	898
f 631 	885 	898
f 883 	901 	900
f 883 	900 	882
f 631 	898 	626
f 898 	293 	901
f 910 	510 	901
f 297 	902 	296
f 908 	296 	902
f 898 	901 	510
f 857 	909 	902
f 908 	903 	296
f 318 	296 	903
f 868 	869 	903
f 904 	901 	883
f 883 	912 	904
f 904 	913 	905
f 906 	901 	904
f 906 	910 	901
f 906 	904 	907
f 905 	907 	904
f 902 	909 	908
f 906 	915 	910
f 915 	906 	907
f 903 	908 	911
f 909 	916 	908
f 911 	908 	916
f 870 	868 	911
f 903 	911 	868
f 904 	912 	913
f 914 	916 	905
f 803 	208 	913
f 914 	913 	208
f 905 	913 	914
f 883 	879 	912
f 910 	915 	510
f 907 	905 	916
f 916 	213 	915
f 915 	907 	916
f 315 	808 	213
f 626 	898 	510
f 277 	909 	311
f 208 	206 	914
f 213 	916 	212
f 909 	255 	916
f 914 	911 	916
f 212 	916 	251
f 206 	204 	914
f 911 	914 	203
f 911 	188 	870
f 203 	200 	911
f 193 	911 	198
f 191 	188 	911
f 869 	500 	903
f 862 	866 	917
f 866 	867 	917
f 659 	660 	24
f 621 	24 	620
f 918 	24 	342
f 574 	615 	24
f 660 	1 	187
f 187 	917 	660
f 187 	862 	917
f 190 	574 	918
f 879 	859 	428
f 471 	912 	879
f 428 	471 	879
f 887 	888 	917
f 660 	917 	20
f 20 	730 	660
f 730 	731 	660
f 728 	720 	660
f 721 	722 	660
f 720 	24 	660
f 918 	574 	24
f 337 	338 	24
f 480 	484 	24
# 1816 faces

 #end of obj_0

