# Object Export From Tinkercad Server 2015

mtllib obj.mtl

o obj_0
v -4.498 		13.5 		17.998
v -4.498 		13.5 		28.003
v -4 		12 		17.998
v -4 		9 		17.998
v -4 		9 		8
v -4 		12 		8
v -4 		12 		38
v -4 		9 		38
v -4 		9 		28.003
v -4 		12 		28.003
v -4.998 		10.998 		38
v -7.5 		10.998 		38
v -7.5 		9 		38
v -7.5 		10.998 		8
v -4.998 		10.998 		8
v -7.5 		9 		8
v -7.5 		9 		17.998
v -7.5 		9 		28.003
v -4.998 		10.998 		17.998
v -4.998 		10.998 		28.003
v -4.998 		13.5 		38
v -4.998 		13.5 		8
v -4.498 		12.003 		17.998
v -4.998 		13.5 		17.998
v -4.498 		12.003 		28.003
v -4.998 		13.5 		28.003
v -7.5 		-14.1384 		17.998
v -4.498 		-12.3345 		17.998
v -7.5 		-14.1384 		8
v -4.498 		-12.3345 		28.003
v -7.5 		-14.1384 		28.003
v -7.5 		-14.1384 		38
v 8.685 		-4.413 		8
v 8.685 		-4.413 		38
v -7.5 		-16 		17.998
v -7.5 		-16 		0
v -7.5 		-16 		46
v -7.5 		-16 		28.003
v -7.5 		-15.8888 		17.998
v -7.5 		-15.8888 		8
v -7.5 		-15.8888 		28.003
v -7.5 		-15.8888 		38
v -4.498 		-14.085 		17.998
v -4.498 		-14.085 		28.003
v 9.458 		-5.699 		38
v 9.458 		-5.699 		8
v -7.5 		-14.1384 		46
v -7.5 		-14.1384 		0
v 12.5 		13.5 		38
v 12.5 		12 		38
v 12.5 		12 		8
v 12.5 		13.5 		8
v 5.003 		12 		17.998
v 5.003 		12 		28.003
v 5.003 		12.003 		28.003
v 5.003 		12.003 		17.998
v -9 		-16 		17.998
v -9 		-16 		0
v -9 		-16 		46
v -9 		-16 		28.003
v -7.503 		14 		17.998
v -9 		14 		17.998
v -7.503 		14 		0
v -9 		14 		0
v -7.503 		14 		46
v -9 		14 		46
v -7.503 		14 		28.003
v -9 		14 		28.003
v -9 		-0.001 		3.266
v -9 		-0.219 		3.411
v -9 		-0.416 		3.584
v -9 		-0.589 		3.781
v -9 		-0.734 		3.999
v -9 		-0.985 		5.261
v -9 		-1.003 		5
v -9 		-0.934 		5.518
v -9 		-0.85 		5.766
v -9 		-0.734 		6.001
v -9 		-0.589 		6.219
v -9 		-0.416 		6.416
v -9 		-0.219 		6.589
v -9 		-0.001 		6.734
v -9 		-0.85 		4.234
v -9 		-0.934 		4.482
v -9 		-0.985 		4.739
v -9 		2.734 		3.999
v -9 		2.589 		3.781
v -9 		2.416 		3.584
v -9 		2.219 		3.411
v -9 		2.001 		3.266
v -9 		1.766 		3.15
v -9 		1.518 		3.066
v -9 		1.261 		3.015
v -9 		1 		2.998
v -9 		0.739 		3.015
v -9 		0.482 		3.066
v -9 		0.234 		3.15
v -9 		0.234 		6.85
v -9 		0.482 		6.934
v -9 		0.739 		6.985
v -9 		1 		7.003
v -9 		1.261 		6.985
v -9 		1.518 		6.934
v -9 		1.766 		6.85
v -9 		2.001 		6.734
v -9 		2.219 		6.589
v -9 		2.416 		6.416
v -9 		2.589 		6.219
v -9 		2.734 		6.001
v -9 		2.85 		5.766
v -9 		2.934 		5.518
v -9 		2.985 		5.261
v -9 		3.003 		5
v -9 		2.985 		4.739
v -9 		2.934 		4.482
v -9 		2.85 		4.234
v -9 		-0.001 		39.266
v -9 		-0.219 		39.411
v -9 		-0.416 		39.584
v -9 		-0.589 		39.781
v -9 		-0.734 		39.999
v -9 		-0.85 		40.234
v -9 		-0.934 		40.482
v -9 		-0.985 		40.739
v -9 		-0.985 		41.261
v -9 		-1.003 		41
v -9 		-0.934 		41.518
v -9 		-0.85 		41.766
v -9 		-0.734 		42.001
v -9 		-0.589 		42.219
v -9 		-0.416 		42.416
v -9 		-0.219 		42.589
v -9 		-0.001 		42.734
v -9 		2.001 		39.266
v -9 		1.766 		39.15
v -9 		1.518 		39.066
v -9 		1.261 		39.015
v -9 		1 		38.998
v -9 		0.739 		39.015
v -9 		0.482 		39.066
v -9 		0.234 		39.15
v -9 		2.985 		40.739
v -9 		2.934 		40.482
v -9 		2.85 		40.234
v -9 		2.734 		39.999
v -9 		2.589 		39.781
v -9 		2.416 		39.584
v -9 		2.219 		39.411
v -9 		0.234 		42.85
v -9 		0.482 		42.934
v -9 		0.739 		42.985
v -9 		1 		43.003
v -9 		1.261 		42.985
v -9 		1.518 		42.934
v -9 		1.766 		42.85
v -9 		2.001 		42.734
v -9 		2.219 		42.589
v -9 		2.416 		42.416
v -9 		2.589 		42.219
v -9 		2.734 		42.001
v -9 		2.85 		41.766
v -9 		2.934 		41.518
v -9 		2.985 		41.261
v -9 		3.003 		41
v -9 		-1.003 		46
v -7.5 		3.003 		46
v -7.5 		10.998 		46
v -7.503 		10.998 		46
v -7.503 		10.998 		0
v -7.5 		10.998 		0
v -7.503 		10.998 		17.998
v -7.5 		-0.001 		3.266
v -7.5 		-0.219 		3.411
v -7.5 		-0.416 		3.584
v -7.5 		-0.589 		3.781
v -7.5 		-0.734 		3.999
v -7.5 		-0.985 		5.261
v -7.5 		-1.003 		5
v -7.5 		-0.934 		5.518
v -7.5 		-0.85 		5.766
v -7.5 		-0.734 		6.001
v -7.5 		-0.589 		6.219
v -7.5 		-0.416 		6.416
v -7.5 		-0.219 		6.589
v -7.5 		-0.001 		6.734
v -7.5 		-0.85 		4.234
v -7.5 		-0.934 		4.482
v -7.5 		-0.985 		4.739
v -7.5 		2.734 		3.999
v -7.5 		2.589 		3.781
v -7.5 		2.416 		3.584
v -7.5 		2.219 		3.411
v -7.5 		2.001 		3.266
v -7.5 		1.766 		3.15
v -7.5 		1.518 		3.066
v -7.5 		1.261 		3.015
v -7.5 		1 		2.998
v -7.5 		0.739 		3.015
v -7.5 		0.482 		3.066
v -7.5 		0.234 		3.15
v -7.5 		0.234 		6.85
v -7.5 		0.482 		6.934
v -7.5 		0.739 		6.985
v -7.5 		1 		7.003
v -7.5 		1.261 		6.985
v -7.5 		1.518 		6.934
v -7.5 		1.766 		6.85
v -7.5 		2.001 		6.734
v -7.5 		2.219 		6.589
v -7.5 		2.416 		6.416
v -7.5 		2.589 		6.219
v -7.5 		2.734 		6.001
v -7.5 		2.85 		5.766
v -7.5 		2.934 		5.518
v -7.5 		2.985 		5.261
v -7.5 		3.003 		5
v -7.5 		2.985 		4.739
v -7.5 		2.934 		4.482
v -7.5 		2.85 		4.234
v -7.503 		10.998 		28.003
v -7.5 		-0.001 		39.266
v -7.5 		-0.219 		39.411
v -7.5 		-0.416 		39.584
v -7.5 		-0.589 		39.781
v -7.5 		-0.734 		39.999
v -7.5 		-0.85 		40.234
v -7.5 		-0.934 		40.482
v -7.5 		-0.985 		40.739
v -7.5 		-0.985 		41.261
v -7.5 		-1.003 		41
v -7.5 		-0.934 		41.518
v -7.5 		-0.85 		41.766
v -7.5 		-0.734 		42.001
v -7.5 		-0.589 		42.219
v -7.5 		-0.416 		42.416
v -7.5 		-0.219 		42.589
v -7.5 		-0.001 		42.734
v -7.5 		2.001 		39.266
v -7.5 		1.766 		39.15
v -7.5 		1.518 		39.066
v -7.5 		1.261 		39.015
v -7.5 		1 		38.998
v -7.5 		0.739 		39.015
v -7.5 		0.482 		39.066
v -7.5 		0.234 		39.15
v -7.5 		2.985 		40.739
v -7.5 		2.934 		40.482
v -7.5 		2.85 		40.234
v -7.5 		2.734 		39.999
v -7.5 		2.589 		39.781
v -7.5 		2.416 		39.584
v -7.5 		2.219 		39.411
v -7.5 		0.234 		42.85
v -7.5 		0.482 		42.934
v -7.5 		0.739 		42.985
v -7.5 		1 		43.003
v -7.5 		1.261 		42.985
v -7.5 		1.518 		42.934
v -7.5 		1.766 		42.85
v -7.5 		2.001 		42.734
v -7.5 		2.219 		42.589
v -7.5 		2.416 		42.416
v -7.5 		2.589 		42.219
v -7.5 		2.734 		42.001
v -7.5 		2.85 		41.766
v -7.5 		2.934 		41.518
v -7.5 		2.985 		41.261
v -7.5 		3.003 		41
# 268 vertices

g group_0_15277357

usemtl color_15277357
s 0

f 3 	4 	5
f 3 	5 	6
f 7 	8 	9
f 7 	9 	10
f 13 	11 	12
f 8 	7 	11
f 8 	11 	13
f 14 	15 	16
f 16 	15 	5
f 22 	6 	15
f 5 	17 	16
f 8 	13 	18
f 4 	17 	5
f 8 	18 	9
f 17 	4 	19
f 19 	15 	14
f 220 	20 	18
f 10 	9 	20
f 26 	25 	20
f 220 	12 	20
f 11 	20 	12
f 11 	26 	20
f 3 	23 	19
f 3 	19 	4
f 18 	20 	9
f 53 	3 	6
f 11 	7 	21
f 5 	15 	6
f 1 	24 	23
f 19 	23 	24
f 15 	19 	22
f 24 	22 	19
f 10 	20 	25
f 2 	25 	26
f 21 	26 	11
f 23 	25 	2
f 23 	2 	1
f 55 	25 	23
f 55 	23 	56
f 23 	3 	56
f 53 	56 	3
f 25 	55 	10
f 27 	28 	29
f 32 	30 	31
f 33 	29 	28
f 30 	34 	28
f 32 	34 	30
f 33 	28 	34
f 36 	40 	35
f 39 	35 	40
f 38 	42 	37
f 41 	42 	38
f 40 	43 	39
f 45 	42 	44
f 41 	44 	42
f 45 	44 	43
f 40 	46 	43
f 45 	43 	46
f 47 	37 	42
f 47 	42 	32
f 37 	47 	59
f 32 	42 	45
f 32 	45 	34
f 36 	48 	40
f 29 	40 	48
f 36 	58 	48
f 33 	46 	29
f 40 	29 	46
f 43 	27 	39
f 28 	27 	43
f 57 	39 	27
f 41 	31 	44
f 38 	60 	41
f 30 	44 	31
f 44 	30 	28
f 44 	28 	43
f 49 	50 	51
f 49 	51 	52
f 1 	2 	49
f 22 	1 	52
f 49 	52 	1
f 2 	21 	49
f 51 	53 	6
f 50 	7 	54
f 10 	54 	7
f 50 	54 	53
f 50 	53 	51
f 50 	49 	7
f 21 	7 	49
f 22 	52 	6
f 51 	6 	52
f 10 	55 	54
f 54 	55 	56
f 54 	56 	53
f 34 	45 	46
f 34 	46 	33
f 58 	35 	57
f 36 	35 	58
f 60 	37 	59
f 38 	37 	60
f 35 	39 	57
f 61 	64 	62
f 61 	63 	64
f 68 	66 	67
f 65 	67 	66
f 69 	58 	70
f 71 	70 	58
f 72 	71 	58
f 72 	58 	73
f 75 	58 	74
f 78 	77 	57
f 76 	74 	57
f 79 	57 	80
f 83 	58 	84
f 85 	84 	58
f 86 	64 	87
f 89 	64 	90
f 91 	90 	64
f 92 	64 	93
f 58 	96 	95
f 58 	69 	97
f 97 	96 	58
f 82 	57 	98
f 98 	57 	99
f 99 	57 	100
f 103 	62 	104
f 106 	105 	62
f 108 	62 	109
f 110 	109 	62
f 110 	62 	111
f 112 	111 	64
f 108 	107 	62
f 107 	106 	62
f 104 	62 	105
f 62 	103 	102
f 62 	102 	101
f 100 	57 	101
f 81 	57 	82
f 62 	101 	57
f 89 	88 	64
f 88 	87 	64
f 86 	116 	64
f 64 	116 	115
f 115 	114 	64
f 64 	114 	113
f 113 	112 	64
f 64 	111 	62
f 95 	94 	58
f 93 	64 	94
f 58 	94 	64
f 92 	91 	64
f 81 	80 	57
f 78 	57 	79
f 77 	76 	57
f 58 	57 	74
f 75 	85 	58
f 83 	73 	58
f 118 	60 	119
f 121 	120 	60
f 120 	119 	60
f 123 	122 	60
f 122 	121 	60
f 124 	123 	60
f 126 	124 	59
f 130 	59 	131
f 134 	68 	135
f 135 	68 	136
f 137 	136 	68
f 141 	60 	117
f 146 	68 	147
f 148 	68 	134
f 147 	68 	148
f 133 	165 	149
f 149 	165 	150
f 151 	150 	165
f 155 	154 	66
f 156 	155 	66
f 158 	66 	159
f 162 	161 	66
f 161 	160 	66
f 160 	159 	66
f 157 	66 	158
f 157 	156 	66
f 165 	66 	154
f 165 	154 	153
f 165 	153 	152
f 152 	151 	165
f 132 	165 	133
f 146 	145 	68
f 144 	68 	145
f 144 	143 	68
f 66 	68 	143
f 143 	142 	66
f 66 	142 	164
f 66 	164 	163
f 163 	162 	66
f 118 	117 	60
f 141 	140 	60
f 140 	139 	60
f 139 	138 	60
f 68 	60 	138
f 138 	137 	68
f 132 	131 	165
f 129 	59 	130
f 128 	59 	129
f 127 	125 	59
f 125 	126 	59
f 60 	59 	124
f 128 	127 	59
f 165 	131 	59
f 165 	47 	166
f 167 	168 	166
f 65 	66 	168
f 165 	166 	66
f 168 	66 	166
f 47 	165 	59
f 170 	48 	169
f 58 	64 	169
f 63 	169 	64
f 58 	169 	48
f 57 	17 	62
f 171 	62 	17
f 19 	171 	17
f 61 	62 	171
f 17 	57 	27
f 172 	69 	70
f 172 	70 	173
f 173 	70 	71
f 72 	175 	71
f 175 	72 	176
f 73 	176 	72
f 83 	176 	73
f 74 	177 	75
f 76 	177 	74
f 77 	180 	76
f 78 	180 	77
f 79 	182 	78
f 182 	79 	183
f 80 	183 	79
f 81 	184 	183
f 81 	183 	80
f 184 	81 	185
f 82 	185 	81
f 84 	187 	83
f 187 	84 	85
f 219 	86 	189
f 87 	190 	86
f 189 	86 	190
f 190 	87 	88
f 190 	88 	191
f 191 	88 	89
f 90 	193 	89
f 193 	90 	194
f 91 	194 	90
f 92 	195 	194
f 92 	194 	91
f 195 	92 	93
f 94 	197 	93
f 197 	94 	198
f 95 	198 	94
f 96 	198 	95
f 172 	97 	69
f 201 	185 	98
f 99 	201 	98
f 100 	203 	99
f 204 	203 	100
f 204 	100 	101
f 102 	205 	204
f 102 	204 	101
f 205 	102 	206
f 103 	206 	102
f 104 	207 	206
f 104 	206 	103
f 105 	207 	104
f 106 	209 	105
f 107 	210 	106
f 108 	211 	107
f 210 	107 	211
f 109 	212 	211
f 109 	211 	108
f 212 	109 	110
f 114 	217 	113
f 115 	217 	114
f 86 	219 	116
f 71 	174 	173
f 175 	174 	71
f 177 	178 	75
f 76 	179 	177
f 180 	179 	76
f 78 	181 	180
f 182 	181 	78
f 83 	186 	176
f 187 	186 	83
f 85 	188 	187
f 75 	178 	85
f 188 	85 	178
f 191 	89 	192
f 192 	89 	193
f 195 	93 	196
f 196 	93 	197
f 96 	199 	198
f 199 	96 	97
f 199 	97 	200
f 200 	97 	172
f 82 	98 	185
f 99 	202 	201
f 203 	202 	99
f 105 	208 	207
f 209 	208 	105
f 210 	209 	106
f 212 	110 	213
f 213 	110 	111
f 213 	111 	214
f 112 	215 	111
f 214 	111 	215
f 113 	216 	112
f 215 	112 	216
f 113 	217 	216
f 115 	218 	217
f 218 	115 	116
f 218 	116 	219
f 170 	169 	14
f 19 	14 	171
f 171 	14 	169
f 63 	61 	171
f 63 	171 	169
f 68 	18 	60
f 31 	60 	18
f 220 	18 	68
f 67 	220 	68
f 31 	41 	60
f 118 	222 	117
f 221 	117 	222
f 222 	118 	119
f 120 	224 	119
f 121 	224 	120
f 122 	226 	121
f 226 	122 	123
f 124 	228 	123
f 124 	126 	228
f 125 	229 	126
f 127 	229 	125
f 128 	232 	127
f 129 	232 	128
f 130 	234 	129
f 234 	130 	235
f 131 	235 	130
f 132 	236 	235
f 132 	235 	131
f 236 	132 	237
f 133 	237 	132
f 148 	134 	238
f 238 	134 	135
f 136 	137 	241
f 241 	137 	138
f 139 	243 	138
f 243 	139 	244
f 140 	244 	139
f 244 	140 	141
f 117 	221 	141
f 246 	142 	247
f 143 	247 	142
f 144 	248 	247
f 144 	247 	143
f 248 	144 	249
f 145 	249 	144
f 249 	145 	146
f 253 	237 	149
f 150 	253 	149
f 151 	255 	150
f 256 	255 	151
f 256 	151 	152
f 153 	257 	256
f 153 	256 	152
f 257 	153 	258
f 154 	258 	153
f 155 	259 	258
f 155 	258 	154
f 156 	259 	155
f 157 	261 	156
f 158 	262 	157
f 159 	263 	158
f 262 	158 	263
f 160 	264 	263
f 160 	263 	159
f 264 	160 	161
f 162 	266 	161
f 266 	162 	267
f 163 	267 	162
f 267 	163 	268
f 164 	268 	163
f 142 	268 	164
f 119 	223 	222
f 224 	223 	119
f 121 	225 	224
f 226 	225 	121
f 123 	227 	226
f 228 	227 	123
f 229 	230 	126
f 127 	231 	229
f 232 	231 	127
f 129 	233 	232
f 234 	233 	129
f 228 	126 	230
f 135 	239 	238
f 136 	240 	135
f 239 	135 	240
f 240 	136 	241
f 241 	138 	242
f 242 	138 	243
f 244 	141 	245
f 245 	141 	221
f 268 	142 	246
f 249 	146 	250
f 147 	251 	146
f 250 	146 	251
f 251 	147 	148
f 251 	148 	252
f 252 	148 	238
f 133 	149 	237
f 150 	254 	253
f 255 	254 	150
f 156 	260 	259
f 261 	260 	156
f 262 	261 	157
f 264 	161 	265
f 265 	161 	266
f 167 	12 	168
f 65 	168 	220
f 220 	168 	12
f 67 	65 	220
f 223 	31 	222
f 224 	31 	223
f 225 	31 	224
f 32 	31 	226
f 227 	228 	32
f 228 	230 	32
f 47 	32 	230
f 235 	47 	234
f 47 	232 	233
f 236 	47 	235
f 234 	47 	233
f 237 	47 	236
f 47 	237 	253
f 239 	18 	238
f 241 	242 	18
f 240 	18 	239
f 242 	243 	18
f 245 	31 	244
f 243 	244 	31
f 222 	31 	221
f 221 	31 	245
f 247 	13 	246
f 248 	13 	247
f 250 	13 	249
f 252 	18 	251
f 238 	18 	252
f 255 	166 	254
f 254 	166 	253
f 256 	166 	255
f 166 	257 	258
f 259 	166 	258
f 262 	167 	261
f 263 	167 	262
f 266 	167 	265
f 267 	167 	266
f 47 	253 	166
f 256 	257 	166
f 166 	259 	260
f 167 	166 	261
f 264 	167 	263
f 264 	265 	167
f 260 	261 	166
f 13 	167 	268
f 246 	13 	268
f 249 	13 	248
f 251 	18 	250
f 267 	268 	167
f 31 	18 	243
f 240 	241 	18
f 12 	167 	13
f 225 	226 	31
f 226 	227 	32
f 230 	229 	47
f 47 	229 	231
f 47 	231 	232
f 173 	48 	172
f 174 	175 	48
f 175 	176 	48
f 176 	186 	48
f 29 	177 	179
f 183 	27 	182
f 184 	27 	183
f 185 	27 	184
f 186 	187 	48
f 187 	188 	48
f 173 	174 	48
f 188 	178 	48
f 29 	48 	178
f 190 	170 	189
f 193 	170 	192
f 191 	170 	190
f 194 	170 	193
f 195 	170 	194
f 191 	192 	170
f 196 	170 	195
f 200 	48 	199
f 200 	172 	48
f 202 	27 	201
f 203 	27 	202
f 201 	27 	185
f 204 	205 	17
f 206 	207 	17
f 207 	208 	17
f 209 	210 	17
f 212 	16 	211
f 210 	211 	17
f 213 	16 	212
f 214 	215 	16
f 215 	216 	16
f 219 	170 	218
f 205 	206 	17
f 208 	209 	17
f 16 	17 	211
f 213 	214 	16
f 204 	17 	203
f 170 	16 	216
f 217 	170 	216
f 217 	218 	170
f 219 	189 	170
f 14 	16 	170
f 170 	196 	197
f 198 	48 	197
f 199 	48 	198
f 170 	197 	48
f 178 	177 	29
f 29 	179 	180
f 182 	27 	181
f 181 	27 	180
f 27 	203 	17
f 29 	180 	27
f 13 	250 	18
f 22 	24 	1
f 26 	21 	2
# 544 faces

 #end of obj_0

