# Object Export From Tinkercad Server 2015

mtllib obj.mtl

o obj_0
v 42 		-12.206 		16.523
v 42 		-12.531 		16.485
v -38 		-11.185 		16.64
v -38 		-10.861 		16.594
v 42 		-11.888 		16.604
v 42 		-11.584 		16.725
v -33.003 		-10.534 		16.589
v 42 		-11.5 		16.729
v 42 		-11.5434 		16.7478
v 42 		-11.185 		16.64
v -38 		-13.798 		16.754
v 37.003 		-10.208 		16.628
v -38 		-5.826 		31.859
v 42 		-9.247 		21.15
v -38 		-13.497 		16.625
v -33.003 		-12.531 		16.485
v 42 		-10.861 		16.594
v -33.003 		-24.6423 		30.8728
v -33.003 		-36.118 		13.5079
v -33.003 		-35.7678 		6.827
v 42 		-9.528 		21.318
v -33.003 		-10.208 		16.628
v -38 		-13.182 		16.536
v -33.003 		-15.161 		18.853
v 37.003 		-13.435 		21.363
v -33.003 		-5.826 		31.859
v 37.003 		-13.739 		21.242
v 42 		-9.829 		21.447
v -38 		-33.1375 		18.018
v -38 		-12.858 		16.489
v -38 		-24.6423 		30.8728
v 42 		-10.144 		21.536
v 37.003 		-14.025 		21.082
v 42 		-13.798 		16.754
v -38 		-12.531 		16.485
v 42 		-13.497 		16.625
v -38 		-12.206 		16.523
v -38 		-15.021 		19.819
v 42 		-13.182 		16.536
v -38 		-15.109 		19.504
v 22.003 		-39.002 		6.827
v -18.003 		-39.002 		6.827
v 37.003 		-5.826 		31.859
v 42 		-5.826 		31.859
v -38 		-11.888 		16.604
v 37.003 		-24.6423 		30.8728
v 42 		-24.6423 		30.8728
v 42 		-12.858 		16.489
v -38 		-15.156 		19.18
v -20.2154 		-44 		6.827
v -38 		-11.584 		16.725
v 24.2155 		-44 		6.827
v -33.003 		-12.206 		16.523
v 34.5133 		-37.3706 		6.827
v -38 		-15.161 		18.853
v -33.003 		-11.888 		16.604
v 37.003 		-35.7678 		6.827
v 37.003 		-5.7796 		6.827
v 35.0534 		-5.7796 		6.827
v 42 		-15.021 		19.819
v -38 		-15.122 		18.527
v -38 		-11.5434 		16.7478
v 37.003 		-10.534 		16.589
v -38 		-15.042 		18.21
v 42 		-15.109 		19.504
v -33.003 		-11.584 		16.725
v 42 		-15.156 		19.18
v -33.003 		-11.5 		16.729
v -38 		-11.5 		16.729
v -33.003 		-11.5434 		16.7478
v 42 		-15.161 		18.853
v -38 		-14.287 		20.886
v -33.003 		-11.185 		16.64
v 42 		-15.122 		18.527
v -38 		-14.521 		20.658
v -33.003 		-10.861 		16.594
v 42 		-15.042 		18.21
v -38 		-14.724 		20.401
v 42 		-14.287 		20.886
v -33.003 		-13.798 		16.754
v 42 		-14.521 		20.658
v -33.003 		-13.497 		16.625
v 42 		-14.724 		20.401
v 37.003 		-10.468 		21.583
v -33.003 		-13.182 		16.536
v 42 		-14.891 		20.12
v 37.003 		-10.795 		21.587
v -33.003 		-12.858 		16.489
v -38 		-10.468 		21.583
v 37.003 		-11.121 		21.549
v -38 		-10.795 		21.587
v 42 		-14.92 		17.906
v -33.003 		-15.021 		19.819
v 42 		-14.76 		17.621
v -38 		-11.121 		21.549
v -33.003 		-15.109 		19.504
v 42 		-14.565 		17.358
v -33.003 		-15.156 		19.18
v -33.003 		-10.468 		21.583
v 42 		-4.5177 		6.8932
v 42 		-14.336 		17.124
v 42 		-1.5236 		7.0503
v 25.9951 		2.473 		7.26
v 2 		2.473 		7.26
v 37.003 		-4.5177 		6.8932
v -33.003 		-10.795 		21.587
v -33.003 		-15.122 		18.527
v 42 		-14.079 		16.921
v 37.003 		-12.793 		21.482
v -38 		-4.5177 		6.893
v -33.003 		-15.042 		18.21
v -33.003 		-11.121 		21.549
v -33.003 		-4.5177 		6.893
v -33.003 		-5.7775 		6.827
v 42 		-11.7835 		21.3237
v -33.003 		-14.287 		20.886
v -31.0401 		-5.7775 		6.827
v -38 		-9.891 		16.708
v 37.003 		-9.891 		16.708
v 42 		-11.826 		21.342
v -33.003 		-14.521 		20.658
v 42 		-11.742 		21.347
v -38 		-9.587 		16.83
v 37.003 		-9.587 		16.83
v -33.003 		-14.724 		20.401
v -33.003 		-14.891 		20.12
v 2 		2.471 		7.259
v -38 		-9.302 		16.99
v -38 		-14.891 		20.12
v 37.003 		-9.302 		16.99
v -21.996 		2.471 		7.259
v -38 		-9.039 		17.185
v -28.907 		0.7451 		7.1686
v 37.003 		-9.039 		17.185
v -33.003 		-14.92 		17.906
v -38 		-1.5256 		7.0497
v 42 		-12.141 		21.431
v -38 		-8.805 		17.414
v 37.003 		-8.805 		17.414
v -38 		-14.92 		17.906
v -33.003 		-14.76 		17.621
v 42 		-32.193 		0
v -38 		-14.76 		17.621
v 37.003 		-8.602 		17.671
v -38 		-8.602 		17.671
v -33.003 		-14.565 		17.358
v -38 		-32.1931 		0
v -38 		-14.565 		17.358
v -33.003 		-14.336 		17.124
v 37.003 		-8.435 		17.952
v -38 		-8.435 		17.952
v -38 		-14.336 		17.124
v -33.003 		-14.079 		16.921
v 37.003 		-8.306 		18.253
v -19.6596 		-44 		0
v -38 		-8.306 		18.253
v -38 		-14.079 		16.921
v 37.003 		-8.217 		18.568
v 42 		-12.465 		21.478
v 37.003 		-8.17 		18.892
v -38 		-8.217 		18.568
v 42 		-11.438 		21.468
v 23.6596 		-44 		0
v -33.003 		-11.7835 		21.3237
v -38 		-8.17 		18.892
v -33.003 		-11.826 		21.342
v 2 		2.4937 		6.827
v -3.9546 		1.003 		6.827
v -33.003 		-11.742 		21.347
v 37.003 		-8.166 		19.219
v 37.003 		-8.204 		19.544
v -38 		-11.7835 		21.3237
v 37.003 		-8.285 		19.861
v -38 		-8.166 		19.219
v 37.003 		-8.406 		20.165
v -38 		-11.826 		21.342
v 42 		-12.793 		21.482
v 37.003 		-8.566 		20.451
v -38 		-8.204 		19.544
v -33.003 		-12.141 		21.431
v -38 		-11.742 		21.347
v 37.003 		-8.762 		20.713
v 42 		-13.118 		21.444
v 37.003 		-8.99 		20.948
v 42 		-13.435 		21.363
v -38 		-8.285 		19.861
v -18.003 		-2.5138 		6.827
v 42 		-13.739 		21.242
v 37.003 		-9.247 		21.15
v -38 		-8.406 		20.165
v 37.003 		-9.528 		21.318
v 42 		-14.025 		21.082
v -5.3846 		1.003 		0
v 37.003 		-9.829 		21.447
v 9.3889 		1.003 		0
v 9.2581 		1.003 		0.6247
v -38 		-12.141 		21.431
v -38 		-8.566 		20.451
v 37.003 		-10.144 		21.536
v -33.003 		-12.465 		21.478
v -33.003 		-11.438 		21.468
v -38 		-8.762 		20.713
v -38 		-8.99 		20.948
v 42 		-10.534 		16.589
v -38 		-12.465 		21.478
v 37.003 		-12.531 		16.485
v -38 		-11.438 		21.468
v -38 		-9.247 		21.15
v -33.003 		-12.793 		21.482
v -38 		-9.528 		21.318
v 37.003 		-15.161 		18.853
v -33.003 		-13.118 		21.444
v 42 		-10.208 		16.628
v -38 		-9.829 		21.447
v 37.003 		-36.118 		13.5079
v -33.003 		-13.435 		21.363
v 42 		-33.1375 		18.018
v -38 		-10.144 		21.536
v -33.003 		-13.739 		21.242
v 37.003 		-12.206 		16.523
v -33.003 		-14.025 		21.082
v 37.003 		-11.888 		16.604
v -38 		-12.793 		21.482
v -33.003 		-9.891 		16.708
v 37.003 		-11.584 		16.725
v -38 		-13.118 		21.444
v -33.003 		-9.587 		16.83
v -38 		-13.435 		21.363
v 37.003 		-11.5434 		16.7478
v -38 		-13.739 		21.242
v -38 		-14.025 		21.082
v 37.003 		-11.5 		16.729
v 42 		-10.468 		21.583
v -33.003 		-9.302 		16.99
v 37.003 		-11.185 		16.64
v 42 		-10.795 		21.587
v -5.2542 		1.003 		0.624
v -33.003 		-9.039 		17.185
v 37.003 		-10.861 		16.594
v 42 		-11.121 		21.549
v -33.003 		-8.805 		17.414
v 22.003 		-39.002 		0
v -18.003 		-39.002 		0
v 37.003 		-13.798 		16.754
v -33.003 		-8.602 		17.671
v 37.003 		-13.497 		16.625
v -38 		-10.534 		16.589
v -18.003 		-2.1561 		0
v -18.003 		-2.3133 		3.0036
v -33.003 		-8.435 		17.952
v -33.003 		-8.306 		18.253
v -38 		-10.208 		16.628
v 37.003 		-13.182 		16.536
v 22.003 		-2.3123 		3.0036
v 22.003 		-2.1547 		0
v -33.003 		-8.217 		18.568
v 37.8366 		-34.8733 		0
v 37.003 		-12.858 		16.489
v -33.003 		-8.17 		18.892
v 37.003 		-15.021 		19.819
v -33.003 		-8.166 		19.219
v 37.003 		-15.109 		19.504
v -33.003 		-8.204 		19.544
v 37.003 		-15.156 		19.18
v 37.003 		-15.122 		18.527
v 37.003 		-15.042 		18.21
v -21.9959 		2.4937 		6.827
v -15.5396 		4.468 		0
v 37.003 		-14.287 		20.886
v 37.003 		-14.521 		20.658
v 37.003 		-14.724 		20.401
v 37.003 		-14.891 		20.12
v -38 		-1.156 		0
v 37.003 		-14.92 		17.906
v 37.003 		-14.76 		17.621
v 37.003 		-14.565 		17.358
v 7.962 		1.003 		6.827
v 2 		2.4957 		6.827
v 37.003 		-14.336 		17.124
v 22.003 		-2.5123 		6.827
v 37.003 		-14.079 		16.921
v -33.003 		-8.285 		19.861
v -33.003 		-8.406 		20.165
v 37.003 		-11.7835 		21.3237
v -33.003 		-8.566 		20.451
v 37.003 		-11.826 		21.342
v -33.003 		-8.762 		20.713
v -33.003 		-8.99 		20.948
v -9.4221 		6 		0
v -7.9941 		6 		6.827
v 12.0001 		6 		6.827
v 13.4294 		6 		0
v -33.003 		-9.247 		21.15
v -33.003 		-9.528 		21.318
v 25.9952 		2.4957 		6.827
v 37.003 		-12.141 		21.431
v -33.003 		-9.829 		21.447
v 37.003 		-11.742 		21.347
v -33.003 		-10.144 		21.536
v 42 		-1.154 		0
v 37.003 		-12.465 		21.478
v 37.003 		-11.438 		21.468
v 42 		-9.891 		16.708
v 37.003 		-13.118 		21.444
v 42 		-9.587 		16.83
v 42 		-9.302 		16.99
v 42 		-9.039 		17.185
v 42 		-8.805 		17.414
v 42 		-8.602 		17.671
v 42 		-8.435 		17.952
v 42 		-8.306 		18.253
v 42 		-8.217 		18.568
v 42 		-8.17 		18.892
v 42 		-8.166 		19.219
v 42 		-8.204 		19.544
v 42 		-8.285 		19.861
v 42 		-8.406 		20.165
v 42 		-8.566 		20.451
v 42 		-8.762 		20.713
v 42 		-8.99 		20.948
# 320 vertices

g group_0_4634441

usemtl color_4634441
s 0

f 9 	6 	8
f 5 	100 	6
f 8 	6 	100
f 113 	234 	114
f 10 	8 	100
f 111 	107 	19
f 24 	98 	19
f 98 	96 	19
f 15 	147 	11
f 1 	220 	206
f 1 	206 	2
f 19 	18 	29
f 31 	29 	18
f 33 	46 	27
f 220 	1 	5
f 35 	110 	30
f 30 	147 	23
f 46 	44 	43
f 50 	41 	42
f 44 	46 	47
f 20 	42 	117
f 187 	117 	42
f 50 	42 	20
f 34 	142 	36
f 39 	142 	48
f 49 	29 	40
f 55 	29 	49
f 9 	229 	6
f 16 	88 	114
f 58 	59 	57
f 41 	54 	59
f 57 	59 	54
f 52 	54 	41
f 52 	41 	50
f 8 	232 	9
f 64 	29 	61
f 42 	243 	187
f 53 	16 	114
f 10 	232 	8
f 47 	217 	60
f 60 	86 	47
f 68 	69 	62
f 29 	147 	20
f 20 	19 	29
f 65 	60 	217
f 53 	114 	56
f 70 	66 	68
f 56 	114 	66
f 3 	69 	68
f 68 	66 	114
f 54 	257 	57
f 73 	114 	76
f 68 	114 	73
f 97 	94 	142
f 77 	217 	92
f 74 	217 	77
f 36 	246 	34
f 12 	119 	58
f 153 	20 	80
f 39 	246 	36
f 153 	149 	20
f 82 	80 	20
f 83 	81 	47
f 79 	47 	81
f 242 	243 	41
f 42 	41 	243
f 82 	15 	11
f 87 	90 	43
f 85 	82 	20
f 48 	258 	39
f 249 	187 	243
f 15 	82 	23
f 85 	23 	82
f 20 	114 	85
f 88 	85 	114
f 83 	47 	86
f 50 	20 	155
f 258 	48 	206
f 2 	206 	48
f 30 	23 	85
f 52 	163 	54
f 260 	60 	65
f 93 	126 	18
f 103 	105 	102
f 104 	59 	103
f 100 	102 	105
f 18 	19 	93
f 96 	93 	19
f 65 	67 	264
f 217 	142 	92
f 94 	92 	142
f 105 	103 	59
f 58 	105 	59
f 96 	40 	38
f 89 	99 	91
f 106 	91 	99
f 264 	67 	71
f 304 	46 	109
f 40 	96 	49
f 112 	95 	91
f 112 	91 	106
f 74 	265 	71
f 101 	97 	142
f 108 	101 	142
f 84 	87 	43
f 46 	43 	90
f 46 	90 	302
f 107 	24 	19
f 77 	266 	265
f 77 	265 	74
f 27 	46 	25
f 304 	25 	46
f 114 	20 	117
f 77 	92 	274
f 61 	111 	64
f 124 	130 	58
f 135 	64 	111
f 125 	121 	18
f 105 	58 	130
f 134 	105 	130
f 139 	105 	134
f 31 	78 	129
f 126 	125 	18
f 38 	31 	129
f 78 	31 	75
f 135 	111 	19
f 133 	136 	113
f 110 	113 	136
f 113 	117 	133
f 131 	133 	117
f 127 	131 	117
f 121 	75 	72
f 114 	117 	113
f 19 	20 	135
f 141 	135 	20
f 143 	147 	140
f 125 	78 	121
f 75 	121 	78
f 148 	147 	143
f 150 	105 	144
f 146 	141 	20
f 250 	151 	145
f 78 	125 	129
f 152 	147 	148
f 154 	105 	150
f 144 	105 	139
f 157 	147 	152
f 156 	151 	250
f 158 	105 	154
f 149 	146 	20
f 269 	79 	81
f 64 	135 	140
f 50 	155 	52
f 160 	105 	158
f 81 	83 	271
f 163 	52 	155
f 140 	135 	143
f 271 	83 	86
f 168 	277 	167
f 160 	170 	105
f 11 	147 	157
f 122 	120 	115
f 120 	44 	137
f 92 	94 	275
f 182 	43 	178
f 275 	94 	97
f 191 	43 	189
f 181 	172 	176
f 185 	183 	47
f 97 	101 	279
f 79 	192 	47
f 188 	47 	192
f 279 	101 	281
f 108 	281 	101
f 199 	84 	43
f 43 	194 	199
f 34 	281 	108
f 205 	31 	197
f 171 	43 	170
f 173 	43 	171
f 175 	43 	173
f 105 	170 	43
f 175 	178 	43
f 43 	182 	184
f 184 	189 	43
f 191 	194 	43
f 119 	124 	58
f 120 	286 	115
f 284 	115 	286
f 169 	166 	164
f 203 	288 	208
f 166 	180 	176
f 284 	298 	115
f 17 	100 	204
f 220 	222 	58
f 225 	232 	58
f 253 	258 	58
f 58 	57 	253
f 169 	18 	166
f 200 	180 	18
f 197 	176 	180
f 33 	269 	46
f 265 	266 	215
f 246 	253 	57
f 269 	270 	46
f 215 	57 	217
f 142 	217 	57
f 204 	100 	213
f 217 	47 	46
f 217 	46 	215
f 218 	99 	89
f 216 	18 	219
f 5 	222 	220
f 207 	181 	197
f 197 	180 	205
f 222 	5 	225
f 6 	225 	5
f 298 	122 	115
f 121 	116 	18
f 116 	221 	18
f 219 	18 	221
f 118 	224 	123
f 227 	123 	224
f 296 	137 	159
f 229 	225 	6
f 234 	123 	227
f 232 	229 	9
f 123 	234 	128
f 10 	235 	232
f 159 	177 	109
f 193 	195 	196
f 277 	168 	196
f 237 	196 	168
f 193 	196 	237
f 17 	239 	235
f 17 	235 	10
f 230 	231 	31
f 31 	231 	72
f 72 	75 	31
f 40 	29 	38
f 238 	132 	128
f 238 	128 	234
f 95 	112 	207
f 302 	240 	162
f 132 	238 	138
f 241 	138 	238
f 76 	114 	7
f 281 	34 	244
f 242 	155 	243
f 122 	298 	162
f 246 	244 	34
f 245 	145 	138
f 245 	138 	241
f 109 	177 	304
f 183 	304 	177
f 243 	248 	249
f 162 	44 	122
f 145 	245 	250
f 185 	304 	183
f 155 	20 	147
f 147 	248 	243
f 147 	243 	155
f 251 	156 	250
f 39 	253 	246
f 156 	251 	161
f 256 	161 	251
f 255 	242 	254
f 41 	280 	242
f 254 	242 	280
f 7 	114 	22
f 192 	33 	188
f 163 	257 	54
f 258 	253 	39
f 259 	165 	161
f 259 	161 	256
f 33 	192 	79
f 142 	57 	257
f 255 	142 	257
f 163 	242 	257
f 155 	242 	163
f 255 	257 	242
f 174 	165 	259
f 118 	123 	110
f 167 	127 	168
f 168 	127 	187
f 117 	187 	127
f 112 	18 	201
f 259 	261 	174
f 187 	249 	168
f 237 	168 	249
f 65 	262 	260
f 169 	201 	18
f 252 	110 	247
f 262 	65 	264
f 63 	239 	204
f 71 	211 	264
f 180 	166 	18
f 200 	18 	209
f 91 	13 	89
f 213 	12 	204
f 211 	71 	265
f 212 	209 	18
f 112 	26 	18
f 106 	26 	112
f 99 	26 	106
f 249 	248 	193
f 249 	193 	237
f 18 	216 	212
f 266 	77 	274
f 199 	32 	84
f 176 	197 	181
f 81 	270 	269
f 224 	114 	227
f 268 	289 	193
f 270 	81 	271
f 236 	87 	84
f 131 	127 	267
f 167 	267 	127
f 223 	31 	205
f 271 	86 	272
f 87 	236 	240
f 87 	240 	90
f 227 	114 	234
f 136 	273 	110
f 302 	90 	240
f 86 	60 	260
f 272 	86 	260
f 218 	89 	13
f 13 	91 	95
f 13 	95 	31
f 207 	197 	31
f 207 	31 	95
f 131 	267 	133
f 268 	133 	267
f 241 	238 	113
f 234 	113 	238
f 133 	268 	273
f 136 	133 	273
f 223 	226 	31
f 31 	226 	228
f 228 	230 	31
f 268 	193 	248
f 147 	273 	248
f 268 	248 	273
f 245 	241 	113
f 236 	84 	233
f 195 	255 	254
f 195 	254 	196
f 274 	92 	275
f 251 	250 	113
f 250 	245 	113
f 97 	276 	275
f 259 	256 	113
f 278 	290 	167
f 167 	277 	278
f 276 	97 	279
f 41 	59 	280
f 12 	303 	119
f 123 	128 	110
f 124 	119 	303
f 267 	290 	268
f 132 	110 	128
f 193 	289 	195
f 306 	130 	124
f 151 	110 	145
f 132 	138 	110
f 104 	278 	277
f 104 	277 	280
f 59 	104 	280
f 285 	283 	26
f 282 	26 	283
f 254 	280 	277
f 254 	277 	196
f 134 	130 	306
f 287 	285 	26
f 156 	110 	151
f 290 	291 	289
f 292 	289 	291
f 288 	287 	26
f 120 	137 	286
f 308 	139 	134
f 267 	167 	290
f 174 	261 	179
f 263 	179 	261
f 295 	291 	278
f 290 	278 	291
f 137 	296 	286
f 144 	139 	308
f 295 	300 	292
f 295 	292 	291
f 282 	186 	179
f 282 	179 	263
f 289 	268 	290
f 310 	150 	144
f 216 	228 	226
f 293 	26 	294
f 186 	282 	190
f 283 	190 	282
f 292 	195 	289
f 154 	150 	310
f 219 	230 	216
f 228 	216 	230
f 285 	198 	190
f 285 	190 	283
f 103 	295 	278
f 103 	278 	104
f 297 	26 	299
f 99 	299 	26
f 230 	219 	231
f 312 	158 	154
f 296 	159 	301
f 102 	100 	300
f 198 	285 	202
f 287 	202 	285
f 300 	295 	102
f 103 	102 	295
f 160 	158 	312
f 288 	203 	202
f 288 	202 	287
f 195 	292 	255
f 300 	255 	292
f 142 	255 	300
f 297 	294 	26
f 26 	293 	288
f 282 	263 	26
f 263 	261 	26
f 113 	26 	261
f 261 	259 	113
f 256 	251 	113
f 301 	159 	109
f 4 	7 	247
f 161 	110 	156
f 177 	159 	44
f 165 	110 	161
f 22 	114 	224
f 22 	247 	7
f 293 	208 	288
f 159 	137 	44
f 120 	122 	44
f 44 	162 	240
f 44 	240 	236
f 236 	233 	44
f 294 	210 	293
f 208 	293 	210
f 177 	44 	183
f 44 	47 	183
f 188 	185 	47
f 162 	298 	302
f 165 	174 	110
f 210 	294 	297
f 210 	297 	214
f 247 	22 	252
f 214 	297 	218
f 299 	218 	297
f 185 	25 	304
f 299 	99 	218
f 188 	27 	185
f 25 	185 	27
f 305 	100 	306
f 305 	303 	100
f 198 	13 	190
f 118 	252 	22
f 22 	224 	118
f 27 	188 	33
f 202 	13 	198
f 53 	37 	35
f 53 	35 	16
f 203 	13 	202
f 79 	269 	33
f 222 	225 	58
f 208 	13 	203
f 308 	307 	100
f 306 	100 	307
f 17 	204 	239
f 37 	53 	45
f 56 	45 	53
f 314 	170 	160
f 235 	239 	58
f 232 	235 	58
f 229 	232 	225
f 210 	13 	208
f 309 	308 	100
f 12 	63 	204
f 66 	51 	45
f 66 	45 	56
f 239 	63 	58
f 214 	13 	210
f 310 	309 	100
f 63 	12 	58
f 66 	70 	51
f 62 	51 	70
f 218 	13 	214
f 246 	57 	244
f 258 	206 	58
f 206 	220 	58
f 320 	184 	182
f 179 	13 	174
f 186 	13 	179
f 186 	190 	13
f 110 	174 	13
f 262 	264 	215
f 319 	318 	44
f 317 	44 	318
f 138 	145 	110
f 14 	189 	320
f 184 	320 	189
f 320 	319 	44
f 264 	211 	215
f 21 	191 	14
f 189 	14 	191
f 270 	271 	46
f 211 	265 	215
f 37 	110 	35
f 4 	110 	3
f 247 	110 	4
f 252 	118 	110
f 147 	30 	110
f 266 	274 	215
f 191 	21 	28
f 191 	28 	194
f 57 	215 	274
f 44 	14 	320
f 32 	199 	28
f 194 	28 	199
f 14 	44 	21
f 32 	233 	84
f 233 	32 	44
f 44 	32 	28
f 213 	303 	12
f 31 	38 	29
f 29 	55 	61
f 64 	140 	29
f 23 	147 	15
f 29 	140 	147
f 305 	124 	303
f 110 	273 	147
f 272 	260 	46
f 28 	21 	44
f 317 	316 	44
f 316 	315 	44
f 315 	314 	44
f 100 	44 	314
f 313 	100 	314
f 312 	311 	100
f 313 	312 	100
f 215 	46 	260
f 271 	272 	46
f 306 	124 	305
f 260 	262 	215
f 307 	134 	306
f 13 	26 	110
f 113 	110 	26
f 276 	57 	275
f 311 	310 	100
f 303 	213 	100
f 17 	10 	100
f 2 	100 	1
f 48 	100 	2
f 100 	5 	1
f 308 	134 	307
f 62 	70 	68
f 279 	57 	276
f 274 	275 	57
f 100 	105 	43
f 100 	43 	44
f 309 	144 	308
f 73 	3 	68
f 36 	142 	39
f 71 	67 	217
f 67 	65 	217
f 74 	71 	217
f 34 	108 	142
f 100 	48 	142
f 281 	57 	279
f 3 	73 	4
f 76 	4 	73
f 142 	300 	100
f 144 	309 	310
f 7 	4 	76
f 244 	57 	281
f 311 	154 	310
f 26 	13 	18
f 31 	18 	13
f 82 	11 	80
f 154 	311 	312
f 3 	110 	69
f 69 	110 	51
f 45 	110 	37
f 313 	160 	312
f 88 	30 	85
f 160 	313 	314
f 16 	35 	30
f 16 	30 	88
f 284 	286 	298
f 45 	51 	110
f 62 	69 	51
f 315 	171 	170
f 315 	170 	314
f 38 	93 	96
f 171 	315 	173
f 316 	173 	315
f 96 	98 	49
f 286 	46 	298
f 302 	298 	46
f 24 	55 	98
f 49 	98 	55
f 317 	175 	173
f 317 	173 	316
f 107 	61 	55
f 107 	55 	24
f 175 	317 	178
f 318 	178 	317
f 301 	46 	296
f 61 	107 	111
f 178 	318 	182
f 319 	182 	318
f 182 	319 	320
f 72 	116 	121
f 125 	126 	129
f 296 	46 	286
f 109 	46 	301
f 93 	38 	126
f 129 	126 	38
f 135 	141 	143
f 146 	148 	141
f 143 	141 	148
f 148 	146 	149
f 148 	149 	152
f 152 	149 	157
f 153 	157 	149
f 157 	153 	11
f 80 	11 	153
f 172 	164 	166
f 172 	166 	176
f 172 	181 	164
f 181 	169 	164
f 180 	200 	205
f 181 	207 	169
f 201 	169 	207
f 205 	200 	209
f 205 	209 	223
f 201 	207 	112
f 223 	209 	226
f 212 	226 	209
f 216 	226 	212
f 221 	231 	219
f 221 	72 	231
f 116 	72 	221
# 648 faces

 #end of obj_0

o obj_1
v -1.333 		56 		0
v -0.3644 		56 		5
v 12.2159 		56 		0.6235
v 12.3367 		56 		0
v -13 		53.0793 		0
v -13 		52.8369 		5
v 24 		19 		5
v 24 		19 		0
v 24 		53.0803 		0
v 24 		52.9347 		3.0019
v 24 		52.838 		5
v 11.3702 		56 		5
v -13 		19 		0
v -13 		19 		5
# 14 vertices

g group_1_15277357

usemtl color_15277357
s 0

f 321 	322 	323
f 321 	323 	324
f 325 	326 	321
f 322 	321 	326
f 329 	330 	328
f 330 	331 	328
f 327 	328 	331
f 323 	332 	330
f 331 	330 	332
f 333 	334 	326
f 333 	326 	325
f 334 	333 	328
f 334 	328 	327
f 323 	322 	332
f 324 	323 	330
f 324 	330 	329
f 331 	332 	327
f 334 	327 	322
f 334 	322 	326
f 322 	327 	332
f 325 	321 	333
f 328 	333 	321
f 321 	324 	328
f 329 	328 	324
# 24 faces

 #end of obj_1

