# Blender 5.2.0 LTS
# www.blender.org
mtllib rudder.mtl
o Plane
v 0.000000 -0.002000 -0.042000
v -0.005000 -0.000500 -0.021636
v 0.025000 -0.000500 -0.044000
v -0.005000 -0.000500 -0.044000
v 0.000000 -0.002000 -0.017181
v -0.007500 -0.000500 -0.015000
v 0.000000 -0.003000 -0.013500
v 0.025000 -0.000500 0.002500
v 0.025000 -0.000500 -0.015000
v 0.000000 -0.003000 0.001000
v -0.007500 -0.000500 0.002500
v -0.005292 0.000000 -0.021689
v 0.025195 0.000000 -0.044000
v -0.005292 0.000000 -0.044000
v -0.007750 0.000000 -0.015080
v 0.025195 0.000000 0.002500
v 0.025195 0.000000 -0.015071
v -0.007750 0.000000 0.002500
vn 0.3162 0.9487 -0.0000
vn -0.0000 0.5145 -0.8575
vn -0.0995 0.9950 -0.0000
vn 0.2600 0.9318 0.2531
vn -0.0805 0.9619 0.2613
vn 0.2184 0.9724 0.0823
vn -0.0599 0.9982 -0.0000
vn 0.2873 0.9578 -0.0000
vn -0.0000 0.8000 0.6000
vn -0.0000 -0.0000 1.0000
vn -0.0000 -0.0000 -1.0000
vn -0.9318 0.3630 -0.0000
vn 0.8637 0.5040 -0.0000
vn 0.8942 0.4477 -0.0000
vn 0.8192 0.4845 0.3067
vn -0.0000 -1.0000 -0.0000
vt 0.000000 0.000000
s 0
f 6/1/1 11/1/1 10/1/1
f 8/1/2 10/1/2 11/1/2
f 7/1/1 6/1/1 10/1/1
f 8/1/3 7/1/3 10/1/3
f 8/1/3 9/1/3 7/1/3
f 7/1/4 5/1/4 6/1/4
f 5/1/5 7/1/5 9/1/5
f 5/1/6 2/1/6 6/1/6
f 3/1/7 5/1/7 9/1/7
f 2/1/8 5/1/8 1/1/8
f 3/1/7 1/1/7 5/1/7
f 2/1/8 1/1/8 4/1/8
f 3/1/9 4/1/9 1/1/9
f 4/1/10 3/1/10 13/1/10 14/1/10
f 8/1/11 11/1/11 18/1/11 16/1/11
f 3/1/12 9/1/12 17/1/12 13/1/12
f 2/1/13 4/1/13 14/1/13 12/1/13
f 11/1/14 6/1/14 15/1/14 18/1/14
f 9/1/12 8/1/12 16/1/12 17/1/12
f 6/1/15 2/1/15 12/1/15 15/1/15
f 14/1/16 13/1/16 17/1/16 16/1/16 18/1/16 15/1/16 12/1/16
